<?xml version="1.0" encoding="UTF-8"?>
<svg version="1.1" xmlns="http://www.w3.org/2000/svg" width="1920" height="1080">
<path d="M0 0 C633.6 0 1267.2 0 1920 0 C1920 356.4 1920 712.8 1920 1080 C1286.4 1080 652.8 1080 0 1080 C0 723.6 0 367.2 0 0 Z " fill="#FEFEFE" transform="translate(0,0)"/>
<path d="M0 0 C3.84443314 2.75605481 6.26599037 5.73945333 8.56640625 9.83984375 C9.49453125 11.41765625 9.49453125 11.41765625 10.44140625 13.02734375 C12.80487124 21.03686399 12.74959054 29.36358349 8.82421875 36.84375 C4.08781315 44.36021976 -1.03899753 48.04164501 -9.43359375 50.83984375 C-19.35134648 51.54534736 -26.72974457 50.99654831 -34.62109375 44.77734375 C-41.18076107 38.55406963 -43.71275918 32.3679463 -44.05859375 23.33984375 C-43.71166472 14.28317001 -41.18312024 8.10156017 -34.55859375 1.90234375 C-23.97895925 -6.40462852 -11.73971249 -6.64364555 0 0 Z " fill="#D62139" transform="translate(834.43359375,670.16015625)"/>
<path d="M0 0 C3.84443314 2.75605481 6.26599037 5.73945333 8.56640625 9.83984375 C9.49453125 11.41765625 9.49453125 11.41765625 10.44140625 13.02734375 C12.83885946 21.15204629 12.60039514 28.53530814 9.06640625 36.27734375 C6.08553251 41.59381974 2.85258377 44.86832384 -2.43359375 47.83984375 C-3.98046875 48.76796875 -3.98046875 48.76796875 -5.55859375 49.71484375 C-11.98700608 52.15675782 -19.85350983 51.91818228 -26.3515625 49.9609375 C-32.02702747 47.35932496 -35.95922755 43.99710607 -39.43359375 38.83984375 C-39.84609375 38.27910156 -40.25859375 37.71835937 -40.68359375 37.140625 C-44.7149336 30.6876817 -44.30864935 23.16553044 -43.43359375 15.83984375 C-40.87424386 6.94698745 -34.96084554 1.64673986 -27.30859375 -3.09765625 C-18.04147884 -6.43297323 -8.35245146 -4.72675349 0 0 Z " fill="#D62239" transform="translate(834.43359375,838.16015625)"/>
<path d="M0 0 C6.52243203 3.68356308 10.94656756 8.48419433 13.7109375 15.4609375 C16.23396966 24.65032985 15.03128944 32.70507671 10.40234375 40.9609375 C7.65860488 44.84061921 4.67727055 47.2494633 0.5625 49.5625 C-0.984375 50.490625 -0.984375 50.490625 -2.5625 51.4375 C-8.99091233 53.87941407 -16.85741608 53.64083853 -23.35546875 51.68359375 C-29.02438957 49.08498103 -32.97542075 45.72316189 -36.4375 40.5625 C-36.85 39.97855469 -37.2625 39.39460937 -37.6875 38.79296875 C-41.64265069 32.26971674 -41.54430385 24.45950982 -39.89453125 17.16015625 C-36.76517672 8.15245619 -31.38340349 3.37779711 -23.4375 -1.4375 C-15.73704438 -4.00431854 -7.32780826 -3.3493265 0 0 Z " fill="#D62239" transform="translate(831.4375,752.4375)"/>
<path d="M0 0 C6.49614681 4.51756688 11.22664528 9.73957631 13.21875 17.54296875 C14.44030987 27.69324971 12.69912913 35.30363998 6.46875 43.35546875 C2.12354477 48.12082105 -4.1884504 51.2873934 -10.63671875 51.74609375 C-20.81430281 51.88927195 -27.43500087 50.73043588 -34.94921875 43.6015625 C-41.20747979 36.56935872 -42.66695427 29.5560863 -42.328125 20.23828125 C-41.14792596 12.26350777 -37.06030641 5.54362857 -30.609375 0.69140625 C-21.18142757 -5.23127868 -9.69783883 -5.62033841 0 0 Z " fill="#D62139" transform="translate(832.78125,585.45703125)"/>
<path d="M0 0 C6.53047717 3.82670699 12.34938071 9.7140845 14.5625 17.0625 C15.60195993 27.74718117 14.37399897 35.39970153 8.375 44.3125 C2.22303764 50.32775209 -4.53644534 53.14504958 -13.0625 53.4375 C-20.70382164 53.33524387 -26.04940751 51.09850792 -31.73046875 46.0078125 C-37.80980326 39.60734738 -40.46308483 34.09734604 -41 25.3125 C-40.75855617 17.35491372 -37.84509839 10.48803311 -32.2109375 4.82421875 C-23.02704082 -2.59354395 -11.09296286 -4.99527831 0 0 Z " fill="#D62239" transform="translate(1019.4375,80.9375)"/>
<path d="M0 0 C6.53047717 3.82670699 12.34938071 9.7140845 14.5625 17.0625 C15.60357866 27.76382018 14.31097754 35.32953435 8.4375 44.3125 C1.52031475 50.92893806 -6.8350191 53.51930312 -16.23828125 53.39453125 C-24.72082657 52.5141694 -30.55071988 47.83315619 -35.80859375 41.375 C-40.63276162 34.52630125 -41.66587002 27.34376121 -40.4375 19.0625 C-37.67702043 10.51965223 -33.21210231 4.57852986 -25.4375 0.0625 C-17.97176737 -3.63278712 -7.55285432 -3.40113005 0 0 Z " fill="#D62239" transform="translate(1019.4375,248.9375)"/>
<path d="M0 0 C6.0973203 4.60570117 9.48612125 10.60841647 10.55078125 18.15625 C10.92239831 27.39645796 9.23715708 34.11577172 3.015625 41.03515625 C-3.43316025 47.18270067 -8.93643807 49.79696044 -17.8046875 50.25 C-25.8400866 50.01694303 -31.87819202 46.87243863 -37.8046875 41.5625 C-44.00373128 34.74794832 -45.70131594 26.98416687 -45.37109375 17.9296875 C-44.26070112 9.93092995 -40.29261373 4.10317048 -34.015625 -0.84375 C-23.29038209 -8.07425084 -10.54641494 -6.83168579 0 0 Z " fill="#D62139" transform="translate(835.9296875,923.25)"/>
<path d="M0 0 C6.78465982 3.98499986 11.48533083 9.77184584 14.5 17 C15.81371056 27.75822435 14.18770273 35.35998406 8.375 44.25 C1.93562425 50.40940289 -6.00012073 53.35667424 -14.81640625 53.203125 C-23.57426435 52.54023036 -29.80040576 48.62477888 -35.5 42 C-37.18202309 39.09005373 -38.39610817 36.16711824 -39.5 33 C-39.83 32.34 -40.16 31.68 -40.5 31 C-41.68486922 21.79101648 -39.86258347 14.58422519 -34.5 7 C-25.30443086 -2.24396687 -12.2199533 -5.57500174 0 0 Z " fill="#D62239" transform="translate(1019.5,165)"/>
<path d="M0 0 C0.86625 0.53625 1.7325 1.0725 2.625 1.625 C8.88525764 7.88525764 11.60543261 13.67823833 11.6875 22.5 C11.51261828 30.71585335 9.73382588 36.82034417 4.16796875 43.05078125 C-1.90936216 48.84042786 -7.59882588 51.09930282 -15.9375 51.4375 C-24.05978029 51.20221984 -30.52727038 48.30883619 -36.42578125 42.7265625 C-42.5172743 36.04557012 -43.68139423 30.00145218 -43.52148438 21.1730957 C-43.0858832 12.25020161 -40.12737464 7.4603784 -33.73046875 1.47265625 C-24.69941745 -6.21291111 -9.71323141 -6.79213737 0 0 Z " fill="#D62139" transform="translate(1117,251)"/>
<path d="M0 0 C5.81741489 4.07560573 10.33501649 8.75371164 12.99609375 15.3984375 C13.33461028 18.25326024 13.52153773 20.80189175 13.49609375 23.6484375 C13.48964844 24.39915527 13.48320313 25.14987305 13.4765625 25.92333984 C13.19589252 34.48562065 10.42047437 40.37148582 4.24609375 46.3359375 C-2.48885822 51.66358607 -9.51265126 53.06420101 -18.01171875 52.8046875 C-25.98984283 51.72149572 -31.4724861 47.61170928 -36.53125 41.55859375 C-40.35171026 35.95457645 -41.53478144 31.6743976 -41.44140625 25.0234375 C-41.43310791 24.26756348 -41.42480957 23.51168945 -41.41625977 22.73291016 C-41.17783447 14.89117854 -39.01608246 10.40431903 -33.75390625 4.6484375 C-24.55245763 -3.79911092 -11.42784206 -6.09196874 0 0 Z " fill="#D62139" transform="translate(1115.00390625,81.6015625)"/>
<path d="M0 0 C6.13615695 4.36611167 11.82377873 10.03383618 14.25 17.3125 C15.0007822 27.57729265 14.77900639 35.92665456 7.9375 44.0625 C-1.06927888 51.60305906 -8.02668646 53.34324389 -19.796875 52.57763672 C-26.39793119 51.68154334 -31.16448487 47.39642765 -35.1875 42.375 C-40.21877564 34.80670719 -41.79951745 28.3572178 -40.75 19.3125 C-38.58134054 11.38525326 -33.66485332 5.01141918 -26.9375 0.375 C-19.43325147 -3.47922288 -7.66583369 -3.56278747 0 0 Z " fill="#D62139" transform="translate(1019.75,500.6875)"/>
<path d="M0 0 C6.13615695 4.36611167 11.82377873 10.03383618 14.25 17.3125 C15.0007822 27.57729265 14.77900639 35.92665456 7.9375 44.0625 C-1.00529001 51.54948698 -8.03892991 53.28675595 -19.68261719 52.57763672 C-26.39360169 51.7169696 -31.09827863 47.46667613 -35.1875 42.375 C-40.16877785 34.88191632 -42.0783527 28.29260339 -40.75 19.3125 C-37.79917203 10.47082497 -32.87896463 3.49526058 -24.5234375 -0.84375 C-17.45528346 -2.99406165 -6.80887898 -3.2280098 0 0 Z " fill="#D62139" transform="translate(1019.75,332.6875)"/>
<path d="M0 0 C5.81741489 4.07560573 10.33501649 8.75371164 12.99609375 15.3984375 C13.33461028 18.25326024 13.52153773 20.80189175 13.49609375 23.6484375 C13.48964844 24.39915527 13.48320313 25.14987305 13.4765625 25.92333984 C13.19589252 34.48562065 10.42047437 40.37148582 4.24609375 46.3359375 C-2.26703305 51.49774266 -9.07100916 53.01045794 -17.30078125 52.74609375 C-25.72469167 51.66267174 -32.12866908 46.89175047 -37.546875 40.609375 C-42.53984384 33.36467511 -41.87915142 24.79583692 -41.00390625 16.3984375 C-39.10494375 8.88078007 -32.95996148 2.96088476 -26.50390625 -1.0390625 C-18.60080415 -4.59776929 -7.61455203 -4.05917519 0 0 Z " fill="#D62139" transform="translate(1115.00390625,165.6015625)"/>
<path d="M0 0 C6.38676215 3.8450915 10.46162017 9.09051512 13.3125 15.9375 C13.65101072 18.79227376 13.83762831 21.34100304 13.8125 24.1875 C13.80677979 24.93749268 13.80105957 25.68748535 13.79516602 26.46020508 C13.55955049 33.81188557 11.63551867 39.243503 6.66796875 44.765625 C-0.85390489 51.76113728 -8.66745819 52.75202069 -18.5078125 52.41015625 C-25.32361178 51.86128412 -29.92204249 48.85949284 -34.55078125 43.96875 C-40.98030284 35.98939147 -41.40733975 27.91242224 -40.6875 17.9375 C-39.213939 10.19820903 -34.25836252 4.39550688 -27.875 0 C-19.76881447 -4.13552855 -8.17856573 -3.72992164 0 0 Z " fill="#D62139" transform="translate(1114.6875,417.0625)"/>
<path d="M0 0 C6.04035818 4.12483604 11.80740754 9.95526466 13.9375 17.0625 C14.76447993 25.56308442 14.82562687 33.74628396 9.9375 41.0625 C5.97382875 45.776055 0.83223799 50.09758734 -5.0625 52.0625 C-14.09614611 52.82414145 -22.38486247 53.44036301 -30.046875 47.90234375 C-36.77896627 41.75735347 -41.08497086 34.60349799 -41.625 25.375 C-41.39566472 17.41806276 -38.35444016 10.7394624 -33.05859375 4.82421875 C-24.60911384 -2.91980174 -10.55717731 -5.36178883 0 0 Z " fill="#D62139" transform="translate(1020.0625,416.9375)"/>
<path d="M0 0 C6.38676215 3.8450915 10.46162017 9.09051512 13.3125 15.9375 C13.65101072 18.79227376 13.83762831 21.34100304 13.8125 24.1875 C13.80677979 24.93749268 13.80105957 25.68748535 13.79516602 26.46020508 C13.55955049 33.81188557 11.63551867 39.243503 6.66796875 44.765625 C-0.85390489 51.76113728 -8.66745819 52.75202069 -18.5078125 52.41015625 C-25.32361178 51.86128412 -29.92204249 48.85949284 -34.55078125 43.96875 C-40.98030284 35.98939147 -41.40733975 27.91242224 -40.6875 17.9375 C-39.213939 10.19820903 -34.25836252 4.39550688 -27.875 0 C-19.76881447 -4.13552855 -8.17856573 -3.72992164 0 0 Z " fill="#D62139" transform="translate(1114.6875,333.0625)"/>
<path d="M0 0 C6.38676215 3.8450915 10.46162017 9.09051512 13.3125 15.9375 C13.65101072 18.79227376 13.83762831 21.34100304 13.8125 24.1875 C13.80677979 24.93749268 13.80105957 25.68748535 13.79516602 26.46020508 C13.55955049 33.81188557 11.63551867 39.243503 6.66796875 44.765625 C-0.85390489 51.76113728 -8.66745819 52.75202069 -18.5078125 52.41015625 C-25.32361178 51.86128412 -29.92204249 48.85949284 -34.55078125 43.96875 C-41.14627169 35.7834158 -41.58837245 27.17668439 -40.6875 16.9375 C-39.7864413 13.87204258 -38.53775922 11.52527513 -36.6875 8.9375 C-36.15125 8.07125 -35.615 7.205 -35.0625 6.3125 C-25.61047474 -3.13952526 -12.35984119 -5.60961022 0 0 Z " fill="#D62139" transform="translate(1114.6875,501.0625)"/>
</svg>
