<?xml version="1.0" encoding="UTF-8"?>
<svg version="1.1" xmlns="http://www.w3.org/2000/svg" width="1080" height="1080">
<path d="M0 0 C3.65230208 2.91645743 5.83089917 5.69196825 6.48828125 10.32421875 C6.59524609 17.19136141 5.21235932 20.67034786 0.46484375 25.76953125 C-4.55122535 28.34535052 -9.32003989 28.40780329 -14.66015625 26.83203125 C-18.59769403 24.51583256 -20.81548029 22.02138318 -22.84765625 17.95703125 C-23.39743694 12.94591545 -23.40920138 9.06006632 -21.09765625 4.51953125 C-15.5407117 -1.80921116 -7.86209947 -4.43801387 0 0 Z " fill="#D51F37" transform="translate(664.84765625,527.04296875)"/>
<path d="M0 0 C3.72405593 1.95670735 6.24188088 4.27386927 7.9453125 8.15234375 C9.31066736 13.20761333 9.27472323 17.17758675 7 22 C3.86227219 25.92659158 0.55213581 28.26174121 -4.4375 29.125 C-9.27758867 29.36493602 -13.14750137 27.90244806 -17 25 C-20.81248125 20.79558142 -21.12760322 16.52096587 -21 11 C-20.16788572 6.72632571 -18.44910274 4.35553967 -15 1.625 C-9.70166175 -1.24493322 -5.76892948 -1.52116051 0 0 Z " fill="#D61F38" transform="translate(585,526)"/>
<path d="M0 0 C3.10864823 2.8125865 4.82074859 5.29187744 5.625 9.375 C5.80543926 14.18671349 5.34406482 18.07515207 3 22.3125 C-1.23934463 25.99403612 -5.25984003 27.69577823 -10.875 27.4375 C-15.91378038 26.61923652 -19.33878307 24.48332742 -22.375 20.375 C-24.28308749 16.03055287 -24.49317007 12.37100485 -23.9375 7.6875 C-21.93160226 3.43499679 -19.2667799 0.95796305 -15.375 -1.625 C-9.99838458 -3.41720514 -5.0400503 -2.42669088 0 0 Z " fill="#FFFFFF" transform="translate(510.375,527.625)"/>
<path d="M0 0 C3.65230208 2.91645743 5.83089917 5.69196825 6.48828125 10.32421875 C6.59524609 17.19136141 5.21235932 20.67034786 0.46484375 25.76953125 C-4.55122535 28.34535052 -9.32003989 28.40780329 -14.66015625 26.83203125 C-18.59769403 24.51583256 -20.81548029 22.02138318 -22.84765625 17.95703125 C-23.39743694 12.94591545 -23.40920138 9.06006632 -21.09765625 4.51953125 C-15.5407117 -1.80921116 -7.86209947 -4.43801387 0 0 Z " fill="#FFFFFF" transform="translate(431.84765625,527.04296875)"/>
<path d="M0 0 C3.95447728 2.08218761 6.27390804 4.1899 8.02734375 8.28125 C9.465589 13.25979126 9.16834363 17.58966766 7.02734375 22.28125 C4.39680939 26.08987644 1.69638031 27.94653806 -2.85546875 28.859375 C-8.05211039 29.14590662 -11.95505371 28.93036501 -16.09765625 25.59375 C-19.62489996 21.92061057 -20.78511521 18.96911936 -21.34765625 13.90625 C-20.80117699 8.62361715 -18.91464995 5.04669882 -14.91015625 1.40625 C-10.30662433 -1.26676853 -5.00336927 -1.82300979 0 0 Z " fill="#FFFFFF" transform="translate(584.97265625,854.71875)"/>
<path d="M0 0 C3.98561154 2.62688033 6.23980531 5.28191592 7.75 9.8125 C8.27050475 16.70918795 6.74440736 20.46012208 2.3125 25.6875 C-1.52357543 28.63168789 -5.64855332 28.57455767 -10.33203125 28.34765625 C-14.12525286 27.65197839 -16.30292953 26.55161245 -18.96875 23.78125 C-21.82209348 19.39684416 -22.73646026 14.68212417 -21.86328125 9.53125 C-20.3971125 4.98866936 -18.36906342 2.38691464 -14.25 -0.1875 C-9.22141801 -1.863694 -4.90969589 -1.79392735 0 0 Z " fill="#FFFFFF" transform="translate(508.25,855.1875)"/>
<path d="M0 0 C4.09930506 1.81955337 6.26255879 4.21586803 7.96875 8.34375 C9.28975627 13.43905989 9.24627524 17.49569447 7.05859375 22.30859375 C4.77655031 25.95481077 1.99570192 27.66809936 -2 29 C-7.61875724 29.3684431 -11.15711379 29.19190228 -16 26 C-19.40390898 22.3200984 -20.8690782 19.73471382 -21.25 14.6875 C-20.8774784 9.19280639 -19.08462106 6.27929664 -15.5625 2.125 C-11.01039855 -1.36873787 -5.40598995 -0.99146 0 0 Z " fill="#D61F37" transform="translate(585,197)"/>
<path d="M0 0 C3.90502425 2.04709749 6.21878583 4.6753325 8.4375 8.4375 C9.51876146 13.36324664 9.65575956 17.26051169 7.25 21.75 C4.47618371 25.75662352 2.58142585 27.47285805 -2 29 C-8.43581151 29.53631763 -11.74533474 28.81220813 -17 25 C-20.13802477 21.02516863 -21.23069524 17.1112683 -20.85546875 12.05078125 C-20.01891173 7.22449074 -18.1696865 4.0570416 -14.2578125 1.078125 C-9.62262937 -1.13521504 -4.9569986 -1.01423684 0 0 Z " fill="#FFFFFF" transform="translate(507,197)"/>
<path d="M0 0 C3.65230208 2.91645743 5.83089917 5.69196825 6.48828125 10.32421875 C6.59510095 17.18204334 5.25302036 20.74561619 0.40234375 25.76953125 C-3.62725795 27.89626548 -7.58758037 28.41559737 -12.00390625 27.51953125 C-16.60771225 26.00783376 -19.21794779 24.16456479 -21.84765625 19.95703125 C-23.20358856 15.88923431 -23.3784121 12.21034866 -22.84765625 7.95703125 C-20.81315959 4.03335913 -18.66415697 1.22307855 -14.84765625 -1.04296875 C-9.97107464 -2.57590263 -4.52884584 -2.55645209 0 0 Z " fill="#FFFFFF" transform="translate(664.84765625,938.04296875)"/>
<path d="M0 0 C3.53271082 2.82096073 5.82220587 5.59890355 6.453125 10.10546875 C6.47955602 15.12736271 6.11745326 18.70704096 3.15234375 22.95703125 C-1.15002421 26.65906879 -5.22161503 28.22908353 -10.84765625 27.95703125 C-16.07758573 26.38805241 -18.82432546 24.49202744 -21.84765625 19.95703125 C-23.70256266 16.24721844 -23.30166535 12.00579732 -22.84765625 7.95703125 C-20.83561352 4.00480446 -18.67481254 1.2294053 -14.84765625 -1.04296875 C-9.97107464 -2.57590263 -4.52884584 -2.55645209 0 0 Z " fill="#D61F38" transform="translate(431.84765625,938.04296875)"/>
<path d="M0 0 C3.63848936 3.72512006 4.91888341 6.35481462 5 11.5625 C4.88101899 17.33307909 2.81709439 20.33302825 -1.0625 24.5 C-6.0785691 27.07581927 -10.84738364 27.13827204 -16.1875 25.5625 C-20.12503778 23.24630131 -22.34282404 20.75185193 -24.375 16.6875 C-24.96248316 11.03862347 -24.70973828 6.46729154 -21.375 1.6875 C-14.82049128 -3.4724324 -7.06578877 -5.62838567 0 0 Z " fill="#D61F38" transform="translate(666.375,117.3125)"/>
<path d="M0 0 C3.60438293 3.10144578 5.3121258 5.73122307 6.00390625 10.48828125 C6.28716922 15.92510284 5.32428951 19.0695789 1.6875 23.3125 C-1.35882676 26.5844806 -4.6953525 27.03515941 -9 27.375 C-12.67678897 27.27562733 -15.17010022 26.16097046 -18.3125 24.3125 C-22.80969297 19.46026548 -23.66294952 16.31950243 -23.59765625 9.85546875 C-23.07878944 5.22831404 -20.65461521 2.52879191 -17.3125 -0.5 C-11.61964136 -3.88013482 -5.70063877 -2.904099 0 0 Z " fill="#FFFFFF" transform="translate(432.3125,116.6875)"/>
<path d="M0 0 C3.42800477 2.39163123 4.91402978 4.05521798 6.6875 7.875 C7.46795276 13.22667608 7.36418363 17.47150803 5 22.375 C0.93515156 26.76943074 -1.77639573 28.06157624 -7.75 28.3125 C-12.70041207 28.1592571 -15.62131209 27.38162851 -19.3125 23.875 C-22.63427493 19.11378927 -23.08462003 14.50938939 -22.3125 8.875 C-20.66369358 5.16518555 -18.36104115 2.54247351 -15.3125 -0.125 C-10.11638584 -1.85703805 -5.17889515 -1.75887005 0 0 Z " fill="#FFFFFF" transform="translate(664.3125,773.125)"/>
<path d="M0 0 C5.82386364 4.65909091 5.82386364 4.65909091 7.1875 8.75 C7.74838796 14.41281112 7.53591375 18.95060696 4.1875 23.75 C0.53499588 27.21987891 -2.4090683 28.05013186 -7.3125 28.25 C-12.21278768 28.05691801 -15.12478553 27.16113589 -18.8125 23.75 C-22.41260695 19.78988235 -22.31879195 15.53477906 -22.16015625 10.41015625 C-21.66156325 6.5950795 -20.44981193 4.52611782 -17.8125 1.75 C-12.3707146 -2.04659446 -6.05858156 -2.69270292 0 0 Z " fill="#D52037" transform="translate(430.8125,773.25)"/>
<path d="M0 0 C3.95168644 1.81545526 6.20829669 4.17146349 7.93359375 8.15625 C9.32913327 13.21833124 9.15755254 17.12205513 7 22 C4.38893615 25.0920493 1.90753327 27.77191811 -2 29 C-7.62151717 29.45334816 -11.16100802 29.18933562 -16 26 C-19.40390898 22.3200984 -20.8690782 19.73471382 -21.25 14.6875 C-20.8774784 9.19280639 -19.08462106 6.27929664 -15.5625 2.125 C-11.01340826 -1.36642791 -5.40249807 -0.99805185 0 0 Z " fill="#FFFFFF" transform="translate(585,608)"/>
<path d="M0 0 C3.90502425 2.04709749 6.21878583 4.6753325 8.4375 8.4375 C9.51876146 13.36324664 9.65575956 17.26051169 7.25 21.75 C4.47618371 25.75662352 2.58142585 27.47285805 -2 29 C-8.43581151 29.53631763 -11.74533474 28.81220813 -17 25 C-20.03438782 21.25758836 -20.75301218 17.77509787 -21 13 C-20.25081051 7.66202489 -18.4618681 4.37626164 -14.2578125 1.11328125 C-9.64328639 -1.16204737 -4.95858821 -1.01456209 0 0 Z " fill="#FFFFFF" transform="translate(507,608)"/>
<path d="M0 0 C3.95827245 2.08418592 6.30600616 4.16916576 8.02734375 8.28125 C9.29363111 13.54121289 9.2009847 17.29998948 7.02734375 22.28125 C4.344171 26.01793843 1.68295573 27.94698688 -2.85546875 28.86328125 C-8.05207052 29.14329864 -11.95489896 28.93048965 -16.09765625 25.59375 C-19.62489996 21.92061057 -20.78511521 18.96911936 -21.34765625 13.90625 C-20.80117699 8.62361715 -18.91464995 5.04669882 -14.91015625 1.40625 C-10.30662433 -1.26676853 -5.00336927 -1.82300979 0 0 Z " fill="#D51F37" transform="translate(584.97265625,443.71875)"/>
<path d="M0 0 C3.98561154 2.62688033 6.23980531 5.28191592 7.75 9.8125 C8.27050475 16.70918795 6.74440736 20.46012208 2.3125 25.6875 C-1.52349471 28.63162594 -5.64865119 28.57264131 -10.33203125 28.3515625 C-14.13799209 27.64845327 -16.29817622 26.49131609 -18.97265625 23.71875 C-22.11753841 19.02547021 -22.51050088 14.54917256 -21.6875 9.0625 C-19.76677503 4.71999138 -17.24453606 2.25681922 -13.4375 -0.5 C-8.67234664 -1.99761963 -4.58845951 -1.67655251 0 0 Z " fill="#FFFFFF" transform="translate(508.25,444.1875)"/>
<path d="M0 0 C4.43118719 2.13646525 7.2290203 4.37577522 9 9 C9.65862967 14.31782472 9.65060637 18.59869397 7.375 23.5 C3.47640924 27.60377974 0.04406582 29.15148243 -5.5625 29.375 C-10.72450385 29.18445623 -13.43457953 27.39148486 -17.25 24 C-20.38452913 20.41768099 -20.28452944 16.81451321 -20.2109375 12.28125 C-19.77164115 7.53034132 -17.89060334 4.84607317 -14.5 1.625 C-9.59473058 -0.65244651 -5.32157127 -0.78398148 0 0 Z " fill="#D62037" transform="translate(662,279)"/>
<path d="M0 0 C3.81978202 1.77347022 5.48336877 3.25949523 7.875 6.6875 C9.65089167 11.91651436 10.02113214 16.70245269 7.75 21.8125 C3.09090909 27.63636364 3.09090909 27.63636364 -1 29 C-6.66281112 29.56088796 -11.20060696 29.34841375 -16 26 C-19.46987891 22.34749588 -20.30013186 19.4034317 -20.5 14.5 C-20.30691801 9.59971232 -19.41113589 6.68771447 -16 3 C-11.4917811 -1.09838082 -5.75434825 -0.7520367 0 0 Z " fill="#FFFFFF" transform="translate(429,279)"/>
<path d="M0 0 C3.30661311 2.13230191 6.22256749 4.44513498 8 8 C8.58126269 12.84876089 9.08691979 17.80735558 6.87109375 22.27734375 C3.82403473 26.04042186 0.87421324 28.22012588 -4 29 C-9.64143503 29.0679691 -13.68806829 27.8105443 -18 24 C-20.68705259 19.25287376 -21.67801883 15.42415066 -21 10 C-18.82861199 4.66200447 -16.55058788 1.88431266 -11.2109375 -0.3984375 C-7.24987621 -1.47618209 -3.8787708 -1.33918205 0 0 Z " fill="#FFFFFF" transform="translate(585,937)"/>
<path d="M0 0 C3.96146632 3.48986318 5.38632205 6.47127012 6.0625 11.6875 C5.39717739 17.20017304 3.63234134 21.58395607 -0.625 25.25 C-5.90340243 27.28938276 -9.6874106 27.79875457 -15.0625 26.25 C-18.77306565 24.07966915 -21.61075437 22.27431475 -23.375 18.3125 C-24.28204259 13.36499495 -24.57059484 8.6047166 -22.1953125 4.05078125 C-16.08490494 -3.5001628 -8.51698402 -4.25849201 0 0 Z " fill="#FFFFFF" transform="translate(510.375,938.6875)"/>
<path d="M0 0 C5.19418123 1.76406155 7.44792054 4.17940546 10 9 C11.59180623 13.77541868 10.70597463 17.35035056 9.02734375 21.9453125 C7.22969583 25.54060834 4.4967031 27.25164845 1 29 C-4.0111158 29.54978069 -7.89696493 29.56154513 -12.4375 27.25 C-16.77418337 23.44218045 -18.80690649 20.55848895 -19.25 14.6875 C-18.88716594 9.33569763 -17.41893949 6.28050637 -13.4375 2.6875 C-8.92566016 -0.43608143 -5.39108956 -0.49092552 0 0 Z " fill="#FFFFFF" transform="translate(583,772)"/>
<path d="M0 0 C5.11762818 2.65358498 8.17705942 5.53117826 10 11 C10.39614654 16.24894167 9.86557317 19.55342094 7 24 C2.0751504 28.44437647 -0.95161487 29.3563486 -7.45703125 29.28125 C-11.19180418 28.86818756 -13.23941828 27.49125668 -16 25 C-18.97579122 21.20330086 -19.83716445 17.80364862 -20 13 C-19.08010165 8.61405607 -17.72430207 5.70619452 -14.5 2.5625 C-9.82918608 -0.3567587 -5.37191466 -0.67034149 0 0 Z " fill="#FFFFFF" transform="translate(506,772)"/>
<path d="M0 0 C3.43270618 3.09780802 5.04210025 5.67695793 6.4375 10.0625 C6.61169801 14.5916483 5.57974696 18.26260724 3.5625 22.3125 C-0.19213157 26.06713157 -3.49320867 27.45249735 -8.75 27.625 C-13.36152889 27.57251105 -15.88600983 26.35663444 -19.4375 23.3125 C-22.33978418 20.00990076 -23.35309053 17.43092552 -23.6875 13 C-23.34272549 7.91457597 -21.74653095 4.82606704 -18.4375 1 C-13.3484682 -3.29387058 -5.67426722 -2.78554936 0 0 Z " fill="#FFFFFF" transform="translate(587.4375,691.6875)"/>
<path d="M0 0 C4.18145284 1.72712182 6.42475328 4.32107611 9 8 C10.56840852 12.70522555 10.54895539 16.52648816 8.8125 21.1875 C6.47953993 24.80761046 3.84455245 27.07772378 0 29 C-6.51095871 29.80889711 -10.7287841 28.90069977 -16 25 C-19.03242008 21.26001524 -19.83782324 17.78421445 -20 13 C-19.0724788 8.57771143 -17.72982117 5.69422014 -14.4375 2.5625 C-9.63187588 -0.51802828 -5.63202528 -0.48935449 0 0 Z " fill="#FFFFFF" transform="translate(506,690)"/>
<path d="M0 0 C3.71690308 1.30766762 6.37398644 3.22791661 8.875 6.3125 C10.91014521 11.17423577 11.52102599 15.15589783 9.875 20.1875 C8.02871311 24.577749 5.23460339 26.88269831 1 29 C-3.51929654 29.41593526 -7.64787033 29.55848834 -11.875 27.8125 C-15.26295887 24.92277038 -17.58453643 22.24639072 -19 18 C-19.39614654 12.75105833 -18.86557317 9.44657906 -16 5 C-10.72507375 0.2397007 -6.99148249 -0.82387355 0 0 Z " fill="#D62037" transform="translate(583,361)"/>
<path d="M0 0 C5.11762818 2.65358498 8.17705942 5.53117826 10 11 C10.39737931 16.26527581 9.79575927 19.50681546 7 24 C4.1463776 27.2995009 2.16115335 28.7730975 -2.26953125 29.23828125 C-8.05034894 29.40699943 -11.51856577 29.04422113 -16 25 C-18.6915689 21.47311661 -19.82937225 18.43632139 -20 14 C-19.08547079 9.31303779 -17.90780687 5.90780687 -14.5 2.5 C-9.79216862 -0.32469883 -5.36475883 -0.66944854 0 0 Z " fill="#FFFFFF" transform="translate(506,361)"/>
<path d="M0 0 C4.4499945 2.18454275 6.99330685 4.45853654 9 9 C10.50866541 14.71137619 9.88532776 18.93415737 7 24 C2.43445413 28.45140722 -1.53564501 29.35548859 -7.71484375 29.28515625 C-12.17320993 28.72881312 -14.94033507 26.20582561 -17.8125 22.9375 C-20.24231423 18.97306626 -20.30894303 15.55690967 -20 11 C-16.40717154 1.35609204 -9.55479257 -1.05675125 0 0 Z " fill="#D62037" transform="translate(584,279)"/>
<path d="M0 0 C5.13308791 2.61320839 8.1797908 5.53937241 10 11 C10.39614654 16.24894167 9.86557317 19.55342094 7 24 C2.3094671 28.23291994 -0.50328133 29.31013995 -6.68359375 29.2109375 C-10.07859741 28.90178034 -12.21119878 27.94567527 -15 26 C-18.16458887 22.15117569 -19.90172466 19.01204228 -20 14 C-19.06828153 9.2754453 -17.92039438 5.89794574 -14.4375 2.5 C-9.61695941 -0.46648651 -5.60807003 -0.62886192 0 0 Z " fill="#FFFFFF" transform="translate(506,279)"/>
<path d="M0 0 C5.74284532 4.8447872 5.74284532 4.8447872 6.26953125 9.23828125 C6.66051556 18.68114475 6.66051556 18.68114475 3.2734375 22.7890625 C0.02550664 25.88592681 -2.52899937 27.63606923 -7.140625 27.6875 C-12.41054653 27.35262204 -15.98220769 26.2379584 -20.0390625 22.6640625 C-22.96484535 18.27538822 -23.66979699 14.89014831 -23.0390625 9.6640625 C-21.60754549 5.49265271 -20.05344683 2.45021036 -16.5390625 -0.2734375 C-10.97383246 -2.63866027 -5.32352629 -3.48782757 0 0 Z " fill="#D51F38" transform="translate(587.0390625,116.3359375)"/>
<path d="M0 0 C4.19779274 3.70967731 5.43942609 7.39040874 6.125 12.875 C5.49070183 17.94938534 3.96492121 21.58082392 -0.04296875 24.73828125 C-4.39374042 27.26537617 -8.1669967 27.94585843 -13.12890625 27.12890625 C-17.47380929 25.62878767 -21.24982257 22.50035486 -23.3125 18.375 C-23.89376269 13.52623911 -24.39941979 8.56764442 -22.18359375 4.09765625 C-16.12507491 -3.38453543 -8.32664618 -4.08476983 0 0 Z " fill="#FFFFFF" transform="translate(510.3125,116.625)"/>
<path d="M0 0 C3.91259565 2.43450396 6.33867368 4.32852105 7.8125 8.75 C8.33688572 13.74455908 8.36253096 17.62956656 6.125 22.1875 C2.98664476 25.66513689 1.01943511 27.476664 -3.7421875 28.06640625 C-8.33203916 28.2592049 -11.4802379 28.07837169 -15.6875 26.125 C-19.7551451 22.26073716 -21.3354244 18.80798327 -21.625 13.25 C-21.46672295 8.77302059 -20.13471017 6.18841186 -17.1875 2.75 C-12.03745225 -1.77579954 -6.40204025 -2.51060402 0 0 Z " fill="#FFFFFF" transform="translate(663.1875,855.25)"/>
<path d="M0 0 C3.62011046 2.33296007 5.89022378 4.96794755 7.8125 8.8125 C8.62139711 15.32345871 7.71319977 19.5412841 3.8125 24.8125 C-0.07307401 28.46258467 -4.43231259 28.3149248 -9.52734375 28.1640625 C-14.35738631 27.52573088 -16.93649761 25.23030271 -20.0625 21.6875 C-22.09130301 16.50278119 -22.12840071 11.09047013 -20 5.9375 C-14.43252871 -0.58988014 -8.33572198 -3.10546505 0 0 Z " fill="#D62037" transform="translate(430.1875,855.1875)"/>
<path d="M0 0 C3.30659099 2.24598633 5.3247926 4.24288766 6.80078125 8.015625 C7.36543806 12.52554628 7.35683134 16.66939846 5.61328125 20.890625 C2.74044403 24.25877898 -0.59256535 27.69761329 -5.15234375 28.25390625 C-10.71233058 28.43356569 -13.86988015 27.84155214 -18.19921875 24.015625 C-21.8545726 19.87930354 -22.84903237 16.64155513 -22.5859375 11.26171875 C-21.77861587 6.57272947 -19.61618124 3.34671097 -16.13671875 0.078125 C-10.93657084 -1.80277956 -5.14539528 -2.30308989 0 0 Z " fill="#FFFFFF" transform="translate(664.19921875,690.984375)"/>
<path d="M0 0 C3.81978202 1.77347022 5.48336877 3.25949523 7.875 6.6875 C9.79142867 12.33031776 10.02668812 16.90713575 7.375 22.3125 C4.26023336 25.83710435 1.61173611 28.54048449 -3.17578125 29.3828125 C-9.58460905 29.70594667 -12.9930959 27.59215871 -17.8125 23.4375 C-20.65611345 19.99523109 -20.33061314 15.7407021 -20.28125 11.5078125 C-19.75368694 6.80370857 -17.32048406 4.20044005 -13.9375 1.125 C-9.30938797 -0.64746844 -4.88680632 -0.63865751 0 0 Z " fill="#D62037" transform="translate(429,690)"/>
<path d="M0 0 C4.42977671 2.1357852 7.19613671 4.39012714 9 9 C9.68829606 14.0729969 9.59408188 17.83305346 7.25 22.4375 C3.44218045 26.77418337 0.55848895 28.80690649 -5.3125 29.25 C-10.66430237 28.88716594 -13.71949363 27.41893949 -17.3125 23.4375 C-20.43608143 18.92566016 -20.49092552 15.39108956 -20 10 C-18.71632192 6.22028121 -17.38685632 4.3675135 -14.5 1.625 C-9.59473058 -0.65244651 -5.32157127 -0.78398148 0 0 Z " fill="#FFFFFF" transform="translate(662,608)"/>
<path d="M0 0 C3.81978202 1.77347022 5.48336877 3.25949523 7.875 6.6875 C9.31762764 10.93523694 9.72387285 14.56130715 9 19 C6.34641502 24.11762818 3.46882174 27.17705942 -2 29 C-7.24894167 29.39614654 -10.55342094 28.86557317 -15 26 C-19.44437647 21.0751504 -20.3563486 18.04838513 -20.28125 11.54296875 C-19.75876935 6.81887291 -17.33563189 4.21421081 -13.9375 1.125 C-9.30938797 -0.64746844 -4.88680632 -0.63865751 0 0 Z " fill="#D61F38" transform="translate(429,608)"/>
<path d="M0 0 C3.62011046 2.33296007 5.89022378 4.96794755 7.8125 8.8125 C8.35894038 13.79316973 8.35454675 17.7083307 6.125 22.25 C2.98664476 25.72763689 1.01943511 27.539164 -3.7421875 28.12890625 C-8.33203916 28.3217049 -11.4802379 28.14087169 -15.6875 26.1875 C-19.7551451 22.32323716 -21.3354244 18.87048327 -21.625 13.3125 C-21.46672295 8.83552059 -20.13471017 6.25091186 -17.1875 2.8125 C-12.03125474 -1.71874584 -6.43533024 -2.39747597 0 0 Z " fill="#D61F38" transform="translate(663.1875,444.1875)"/>
<path d="M0 0 C3.62011046 2.33296007 5.89022378 4.96794755 7.8125 8.8125 C8.39998316 14.46137653 8.14723828 19.03270846 4.8125 23.8125 C1.15999588 27.28237891 -1.7840683 28.11263186 -6.6875 28.3125 C-11.58778768 28.11941801 -14.49978553 27.22363589 -18.1875 23.8125 C-21.57381676 19.97467434 -21.69699328 16.17878506 -21.54296875 11.25 C-20.87709366 6.68399937 -18.49427647 3.96087932 -15.125 1 C-10.23067601 -1.99974696 -5.29136935 -1.97129446 0 0 Z " fill="#FFFFFF" transform="translate(430.1875,444.1875)"/>
<path d="M0 0 C4.64425866 2.49413891 8.31375022 4.94125067 10 10 C10.52438572 14.99455908 10.55003096 18.87956656 8.3125 23.4375 C5.17414476 26.91513689 3.20693511 28.726664 -1.5546875 29.31640625 C-6.14453916 29.5092049 -9.2927379 29.32837169 -13.5 27.375 C-17.5676451 23.51073716 -19.1479244 20.05798327 -19.4375 14.5 C-19.26335262 9.99488292 -18.02845049 7.42693082 -15 4 C-10.29075016 -0.16166265 -6.07934554 -1.10038333 0 0 Z " fill="#D62037" transform="translate(661,361)"/>
<path d="M0 0 C4.81706073 2.3630864 7.6369136 5.18293927 10 10 C10.83332417 14.65981271 10.50057244 18.65068055 8.3125 22.875 C4.79604881 27.62696107 4.79604881 27.62696107 1 29 C-4.4932796 29.75798742 -9.34678416 29.95312774 -14.0625 26.75 C-17.24226154 24.2310691 -18.79396834 21.64557751 -19.30078125 17.59765625 C-19.34090789 8.91692649 -19.34090789 8.91692649 -16 5 C-10.65428329 0.30619996 -7.03618827 -0.84244413 0 0 Z " fill="#FFFFFF" transform="translate(428,361)"/>
<path d="M0 0 C4.42977671 2.1357852 7.19613671 4.39012714 9 9 C9.54454427 13.58324763 9.58720242 17.57835205 7.8125 21.875 C4.92277038 25.26295887 2.24639072 27.58453643 -2 29 C-7.24894167 29.39614654 -10.55342094 28.86557317 -15 26 C-19.17949495 21.36866776 -20.36008143 18.50600867 -20.28125 12.38671875 C-19.7158658 7.58880562 -17.45432765 4.36618658 -13.9375 1.0625 C-9.29975431 -0.61498248 -4.86783745 -0.64332654 0 0 Z " fill="#D62037" transform="translate(662,197)"/>
<path d="M0 0 C3.81978202 1.77347022 5.48336877 3.25949523 7.875 6.6875 C9.31762764 10.93523694 9.72387285 14.56130715 9 19 C6.34641502 24.11762818 3.46882174 27.17705942 -2 29 C-7.26527581 29.39737931 -10.50681546 28.79575927 -15 26 C-18.2995009 23.1463776 -19.7730975 21.16115335 -20.23828125 16.73046875 C-20.40699943 10.94965106 -20.04422113 7.48143423 -16 3 C-11.4917811 -1.09838082 -5.75434825 -0.7520367 0 0 Z " fill="#FFFFFF" transform="translate(429,197)"/>
</svg>
