<?xml version="1.0" encoding="UTF-8" standalone="no"?>
<svg
   xmlns:dc="http://purl.org/dc/elements/1.1/"
   xmlns:cc="http://creativecommons.org/ns#"
   xmlns:rdf="http://www.w3.org/1999/02/22-rdf-syntax-ns#"
   xmlns:svg="http://www.w3.org/2000/svg"
   xmlns="http://www.w3.org/2000/svg"
   viewBox="0 0 345.18668 158.10667"
   height="158.10667"
   width="345.18668"
   xml:space="preserve"
   id="svg2"
   version="1.1"><metadata
     id="metadata8"><rdf:RDF><cc:Work
         rdf:about=""><dc:format>image/svg+xml</dc:format><dc:type
           rdf:resource="http://purl.org/dc/dcmitype/StillImage" /></cc:Work></rdf:RDF></metadata><defs
     id="defs6" /><g
     transform="matrix(1.3333333,0,0,-1.3333333,0,158.10667)"
     id="g10"><g
       transform="scale(0.1)"
       id="g12"><path
         id="path14"
         style="fill:#d5213a;fill-opacity:1;fill-rule:nonzero;stroke:none"
         d="m 971.293,800.391 c -4.867,1.484 -9.773,2.871 -14.723,4.191 -22.39,5.934 -45.547,9.969 -69.261,12.02 -4.969,0.429 -9.934,0.867 -14.954,1.113 -6.82,0.34 -13.679,0.527 -20.578,0.527 -6.898,0 -13.757,-0.187 -20.578,-0.527 1.305,-13.516 2.024,-27.199 2.024,-41.055 0,-9.765 -0.453,-19.426 -1.106,-29.031 6.512,0.379 13.059,0.613 19.66,0.613 6.602,0 13.149,-0.234 19.661,-0.613 5.066,-0.293 10.121,-0.649 15.125,-1.164 24.882,-2.547 48.937,-7.879 71.937,-15.527 5.387,-1.79 10.703,-3.711 15.969,-5.762 107.701,-41.965 188.801,-137.414 210.541,-253.574 23.31,-8.391 47.86,-14.161 73.28,-16.993 -18.22,163.868 -133.54,298.809 -286.997,345.782" /><path
         id="path16"
         style="fill:#d5213a;fill-opacity:1;fill-rule:nonzero;stroke:none"
         d="m 1313.03,409.102 c 0,9.777 0.45,19.441 1.11,29.05 -6.52,-0.379 -13.07,-0.613 -19.69,-0.613 -6.61,0 -13.16,0.234 -19.68,0.613 -5.07,0.297 -10.12,0.657 -15.13,1.164 -24.87,2.551 -48.93,7.883 -71.94,15.536 -5.38,1.789 -10.7,3.711 -15.96,5.765 -107.71,41.961 -188.81,137.399 -210.545,253.571 -23.308,8.39 -47.851,14.152 -73.273,16.984 18.215,-163.848 133.538,-298.797 286.998,-345.774 4.87,-1.492 9.78,-2.878 14.72,-4.187 22.4,-5.949 45.55,-9.981 69.27,-12.031 4.96,-0.43 9.93,-0.871 14.95,-1.114 6.82,-0.343 13.69,-0.527 20.59,-0.527 6.91,0 13.77,0.184 20.6,0.527 -1.3,13.508 -2.02,27.188 -2.02,41.036" /><path
         id="path18"
         style="fill:#d5213a;fill-opacity:1;fill-rule:nonzero;stroke:none"
         d="m 816.246,816.602 c -0.488,5 -1.137,9.949 -1.808,14.902 C 787.551,1031.24 616.098,1185.78 409.121,1185.78 183.531,1185.78 0,1002.25 0,776.66 0,551.074 183.531,367.539 409.121,367.539 c 6.899,0 13.762,0.184 20.574,0.527 -1.3,13.508 -2.019,27.188 -2.019,41.036 0,9.777 0.453,19.441 1.109,29.05 -6.515,-0.379 -13.062,-0.613 -19.664,-0.613 C 222.129,437.539 70,589.668 70,776.66 c 0,186.992 152.129,339.12 339.121,339.12 172.387,0 315.039,-129.335 336.274,-296.065 0.636,-5.008 1.168,-10.055 1.589,-15.133 0.75,-9.223 1.239,-18.519 1.239,-27.922 0,-15.519 -1.145,-30.762 -3.168,-45.722 -0.762,-5.625 -1.66,-11.211 -2.696,-16.75 C 720.625,598.016 639.523,502.566 531.813,460.605 c -2.692,-16.777 -4.137,-33.976 -4.137,-51.503 0,-7.977 0.39,-15.872 0.961,-23.711 153.453,46.972 268.785,181.922 287,345.781 0.558,5.07 0.98,10.176 1.355,15.293 0.735,9.98 1.231,20.031 1.231,30.195 0,13.477 -0.7,26.797 -1.977,39.942" /><path
         id="path20"
         style="fill:#d5213a;fill-opacity:1;fill-rule:nonzero;stroke:none"
         d="M 1188.05,366.063 C 1166.82,199.344 1024.18,70 851.777,70 679.387,70 536.73,199.336 515.504,366.063 c -0.641,5.011 -1.172,10.062 -1.59,15.14 -0.75,9.207 -1.238,18.496 -1.238,27.899 0,15.519 1.14,30.773 3.168,45.742 0.765,5.625 1.668,11.211 2.703,16.746 21.734,116.172 102.84,211.621 210.539,253.586 2.691,16.777 4.137,33.965 4.137,51.484 0,7.988 -0.391,15.879 -0.961,23.731 C 578.809,753.418 463.484,618.465 445.27,454.609 c -0.567,-5.066 -0.985,-10.175 -1.36,-15.293 -0.73,-9.988 -1.234,-20.039 -1.234,-30.214 0,-13.469 0.699,-26.778 1.972,-39.922 0.489,-5 1.141,-9.953 1.805,-14.903 C 473.34,154.543 644.797,0 851.777,0 1058.76,0 1230.21,154.551 1257.1,354.277 c -23.62,2.071 -46.69,5.996 -69.05,11.786" /><path
         id="path22"
         style="fill:#d5213a;fill-opacity:1;fill-rule:nonzero;stroke:none"
         d="M 2073.38,366.063 C 2052.17,199.344 1909.51,70 1737.13,70 c -172.4,0 -315.06,129.344 -336.27,296.063 -0.65,5.023 -1.17,10.07 -1.59,15.148 -0.75,9.207 -1.24,18.488 -1.24,27.891 0,15.527 1.14,30.773 3.17,45.75 0.76,5.625 1.66,11.211 2.7,16.75 21.74,116.16 102.83,211.601 210.51,253.566 2.7,16.773 4.14,33.961 4.14,51.492 0,7.988 -0.39,15.879 -0.95,23.719 -153.45,-46.969 -268.76,-181.914 -286.97,-345.77 -0.57,-5.066 -0.99,-10.175 -1.37,-15.293 -0.72,-9.988 -1.23,-20.039 -1.23,-30.214 0,-13.469 0.7,-26.778 1.97,-39.922 0.49,-5 1.14,-9.953 1.81,-14.903 C 1358.69,154.551 1530.15,0 1737.13,0 c 206.97,0 378.42,154.551 405.3,354.277 -23.6,2.071 -46.69,5.996 -69.05,11.786" /><path
         id="path24"
         style="fill:#d5213a;fill-opacity:1;fill-rule:nonzero;stroke:none"
         d="m 1701.58,816.602 c -0.49,5 -1.14,9.949 -1.81,14.902 -26.89,199.726 -198.34,354.276 -405.32,354.276 -206.98,0 -378.442,-154.54 -405.333,-354.276 23.61,-2.07 46.696,-5.988 69.043,-11.789 21.235,166.73 163.89,296.065 336.29,296.065 172.4,0 315.04,-129.346 336.27,-296.065 0.65,-5.016 1.17,-10.067 1.6,-15.145 0.75,-9.211 1.23,-18.507 1.23,-27.91 0,-15.519 -1.14,-30.762 -3.16,-45.734 -0.76,-5.625 -1.67,-11.211 -2.7,-16.746 -21.73,-116.164 -102.83,-211.602 -210.52,-253.563 -2.7,-16.789 -4.14,-33.988 -4.14,-51.515 0,-7.977 0.39,-15.872 0.95,-23.704 153.45,46.977 268.77,181.926 286.99,345.774 0.55,5.07 0.97,10.176 1.35,15.293 0.73,9.98 1.23,20.031 1.23,30.195 0,13.477 -0.7,26.797 -1.97,39.942" /><path
         id="path26"
         style="fill:#d5213a;fill-opacity:1;fill-rule:nonzero;stroke:none"
         d="m 1856.64,800.391 c -4.86,1.484 -9.78,2.871 -14.71,4.191 -22.4,5.934 -45.55,9.969 -69.27,12.02 -4.96,0.429 -9.93,0.867 -14.96,1.113 -6.81,0.34 -13.68,0.527 -20.57,0.527 -6.92,0 -13.77,-0.187 -20.6,-0.527 1.3,-13.516 2.02,-27.199 2.02,-41.055 0,-9.765 -0.44,-19.426 -1.1,-29.031 6.51,0.379 13.07,0.613 19.68,0.613 6.6,0 13.14,-0.234 19.66,-0.613 5.07,-0.293 10.12,-0.649 15.12,-1.164 24.89,-2.547 48.94,-7.879 71.94,-15.527 5.39,-1.797 10.7,-3.723 15.97,-5.762 107.69,-41.973 188.79,-137.414 210.52,-253.574 23.31,-8.391 47.86,-14.161 73.27,-16.993 -18.21,163.856 -133.53,298.801 -286.97,345.782" /><path
         id="path28"
         style="fill:#d5213a;fill-opacity:1;fill-rule:nonzero;stroke:none"
         d="m 2179.79,1185.78 c -206.98,0 -378.43,-154.55 -405.32,-354.276 23.6,-2.07 46.69,-5.988 69.05,-11.789 21.23,166.719 163.88,296.065 336.27,296.065 186.98,0 339.1,-152.128 339.1,-339.12 0,-186.992 -152.12,-339.121 -339.1,-339.121 -6.61,0 -13.17,0.234 -19.69,0.613 -5.06,0.297 -10.12,0.657 -15.12,1.164 -24.88,2.551 -48.93,7.883 -71.94,15.536 -5.38,1.789 -10.7,3.711 -15.97,5.765 -107.69,41.961 -188.79,137.399 -210.53,253.563 -23.3,8.398 -47.85,14.16 -73.27,16.992 18.21,-163.848 133.54,-298.797 286.98,-345.774 4.87,-1.492 9.78,-2.878 14.72,-4.187 22.39,-5.949 45.55,-9.981 69.27,-12.031 4.96,-0.43 9.93,-0.871 14.95,-1.114 6.83,-0.343 13.69,-0.527 20.6,-0.527 225.58,0 409.1,183.535 409.1,409.121 0,225.59 -183.52,409.12 -409.1,409.12" /></g></g></svg>