<?xml version="1.0" encoding="UTF-8"?>
<svg version="1.1" xmlns="http://www.w3.org/2000/svg" width="1920" height="1080">
<path d="M0 0 C633.6 0 1267.2 0 1920 0 C1920 356.4 1920 712.8 1920 1080 C1286.4 1080 652.8 1080 0 1080 C0 723.6 0 367.2 0 0 Z " fill="#FEFEFE" transform="translate(0,0)"/>
<path d="M0 0 C1.83749565 -0.01925285 1.83749565 -0.01925285 3.71211243 -0.03889465 C5.05571082 -0.04706237 6.39931378 -0.05450604 7.74291992 -0.0612793 C8.41886389 -0.06535482 9.09480785 -0.06943035 9.79123497 -0.07362938 C13.36960927 -0.09448933 16.94794524 -0.10879078 20.52636719 -0.11816406 C24.21867292 -0.12922282 27.91037503 -0.16361566 31.60246754 -0.20333576 C34.44468794 -0.22950944 37.28676476 -0.23785654 40.12909508 -0.24144554 C41.48984538 -0.2463104 42.8505893 -0.25792176 44.21122169 -0.27648354 C46.11853089 -0.30088366 48.02613384 -0.29748929 49.93359375 -0.29296875 C51.01788162 -0.29883499 52.10216949 -0.30470123 53.21931458 -0.31074524 C56.86654226 0.29400752 58.52626077 1.63652802 61.16088867 4.17700195 C62.49499911 6.84522283 62.31754714 8.92052271 62.35375977 11.90844727 C62.36982269 13.11019592 62.38588562 14.31194458 62.4024353 15.55010986 C62.44681136 21.05350594 62.48839712 26.55677025 62.51098633 32.06030273 C62.52431213 34.96459547 62.55213758 37.86818331 62.59301758 40.7722168 C62.6424288 44.28241731 62.66711766 47.79197971 62.67421341 51.30251312 C62.68416006 53.28452718 62.7183854 55.26637154 62.75302124 57.24810791 C62.7294498 67.2915417 62.7294498 67.2915417 59.81567383 70.98071289 C56.01516893 74.12484956 53.27991922 74.30979894 48.49951172 74.36987305 C46.75706429 74.39396744 46.75706429 74.39396744 44.97941589 74.41854858 C39.67181939 74.46301204 34.36436999 74.50449215 29.05664062 74.52709961 C26.2561778 74.54043437 23.45644445 74.56828073 20.65625 74.60913086 C16.61991124 74.66800532 12.58435323 74.6857674 8.54760742 74.70043945 C7.29743332 74.72310883 6.04725922 74.7457782 4.75920105 74.76913452 C-4.92350207 74.74557006 -4.92350207 74.74557006 -8.61328125 71.76928711 C-11.81425957 68.04130776 -11.97135077 66.26841174 -12.01611328 61.4296875 C-12.02894852 60.22471115 -12.04178375 59.0197348 -12.05500793 57.77824402 C-12.06239487 56.46995132 -12.0697818 55.16165863 -12.07739258 53.8137207 C-12.08146811 53.1488093 -12.08554363 52.4838979 -12.08974266 51.79883766 C-12.11060213 48.27881811 -12.12490374 44.75883752 -12.13427734 41.23876953 C-12.1453356 37.60699338 -12.17972793 33.97583101 -12.21944904 30.34427166 C-12.24562507 27.54837422 -12.25397003 24.75262273 -12.25755882 21.95661354 C-12.26478428 19.96852008 -12.29122011 17.98052642 -12.31794739 15.99259949 C-12.31502182 14.77816666 -12.31209625 13.56373383 -12.30908203 12.3125 C-12.31494827 11.24597702 -12.32081451 10.17945404 -12.32685852 9.08061218 C-11.71863619 5.4598008 -10.35850842 3.79666936 -7.83911133 1.17700195 C-5.14243932 -0.17133405 -3.019393 0.02747343 0 0 Z " fill="#D6223A" transform="translate(934.839111328125,866.822998046875)"/>
<path d="M0 0 C9.04541033 5.37071238 15.9802628 13.33052246 19.22265625 23.41796875 C21.29472914 34.44220123 19.22523441 44.41548129 13.06640625 53.64453125 C6.75563814 62.02468403 -0.2552846 66.05529573 -10.375 68.55859375 C-19.16573524 69.36801905 -26.73744497 69.20894438 -34.375 64.55859375 C-35.921875 63.69234375 -35.921875 63.69234375 -37.5 62.80859375 C-44.66660894 57.19994327 -50.68983881 49.69979834 -52.375 40.55859375 C-53.08146056 28.12760508 -52.54124483 18.51689989 -44.32421875 8.62890625 C-41.29659878 5.41319766 -38.12298259 2.88517162 -34.375 0.55859375 C-33.41207031 -0.06208984 -33.41207031 -0.06208984 -32.4296875 -0.6953125 C-22.546125 -6.08805477 -9.82776006 -4.71358601 0 0 Z " fill="#FEFBFC" transform="translate(975.375,753.44140625)"/>
<path d="M0 0 C0.73605469 0.01353516 1.47210937 0.02707031 2.23046875 0.04101562 C4.02896743 0.07605131 5.82708422 0.12984712 7.625 0.1875 C7.625 4.1475 7.625 8.1075 7.625 12.1875 C5.34635417 12.41536458 3.06770833 12.64322917 0.7890625 12.87109375 C-1.41772805 13.07840114 -1.41772805 13.07840114 -3.375 14.1875 C-3.8433265 16.77355332 -3.8433265 16.77355332 -4 19.75 C-4.12375 21.544375 -4.2475 23.33875 -4.375 25.1875 C-0.415 25.1875 3.545 25.1875 7.625 25.1875 C7.295 29.1475 6.965 33.1075 6.625 37.1875 C2.995 37.1875 -0.635 37.1875 -4.375 37.1875 C-4.375 49.3975 -4.375 61.6075 -4.375 74.1875 C-9.325 74.1875 -14.275 74.1875 -19.375 74.1875 C-19.375 61.9775 -19.375 49.7675 -19.375 37.1875 C-22.015 37.1875 -24.655 37.1875 -27.375 37.1875 C-27.375 33.2275 -27.375 29.2675 -27.375 25.1875 C-24.735 25.1875 -22.095 25.1875 -19.375 25.1875 C-19.46201172 23.81078125 -19.46201172 23.81078125 -19.55078125 22.40625 C-19.7997785 15.63352467 -19.92823824 10.44733805 -16.0546875 4.73828125 C-11.12594855 0.18779436 -6.34700898 -0.22380954 0 0 Z " fill="#D6243B" transform="translate(968.375,630.8125)"/>
<path d="M0 0 C0.66 0 1.32 0 2 0 C2 9.28658615 -1.72748228 19.10172042 -8 26 C-14.10956044 30.7577705 -20.50107113 31.55691527 -28 31 C-31.5625 30 -31.5625 30 -34 29 C-31.68143083 27.45428722 -29.49361571 26.20381448 -27 25 C-28.32 23.68 -29.64 22.36 -31 21 C-30.67 20.01 -30.34 19.02 -30 18 C-31.32 17.01 -32.64 16.02 -34 15 C-33.7215625 13.824375 -33.7215625 13.824375 -33.4375 12.625 C-32.74037734 10.02910225 -32.74037734 10.02910225 -34 8 C-34.04022391 5.6670134 -34.04320247 3.33293334 -34 1 C-31.4842729 2.16110481 -29.43784718 3.4122454 -27.1875 5.0625 C-23.67560805 7.19717942 -21.06021098 7.67518312 -17 8 C-16.9175 7.071875 -16.835 6.14375 -16.75 5.1875 C-16 2 -16 2 -14.375 0.125 C-9.70067651 -2.08915323 -4.884119 -1.11637006 0 0 Z " fill="#D7253D" transform="translate(975,771)"/>
<path d="M0 0 C3.3 0 6.6 0 10 0 C10 0.99 10 1.98 10 3 C10.639375 2.505 11.27875 2.01 11.9375 1.5 C16.04455241 -0.51161751 19.50150186 -0.74160024 24 0 C26.82305325 1.64678106 28.5408313 2.66324853 29.61889648 5.80175781 C30.06596004 8.38046391 30.11219879 10.80421859 30.09765625 13.421875 C30.09443359 14.44667969 30.09121094 15.47148438 30.08789062 16.52734375 C30.07951172 17.59082031 30.07113281 18.65429688 30.0625 19.75 C30.05798828 20.82894531 30.05347656 21.90789063 30.04882812 23.01953125 C30.03705727 25.67974383 30.02061399 28.33984365 30 31 C27.03 31 24.06 31 21 31 C20.93941406 29.65164063 20.87882813 28.30328125 20.81640625 26.9140625 C20.73200578 25.1510304 20.64735753 23.38801016 20.5625 21.625 C20.52318359 20.73554687 20.48386719 19.84609375 20.44335938 18.9296875 C20.40146484 18.07890625 20.35957031 17.228125 20.31640625 16.3515625 C20.27974854 15.56604004 20.24309082 14.78051758 20.20532227 13.97119141 C20.109109 11.92476504 20.109109 11.92476504 19 10 C16.66705225 9.95758277 14.33297433 9.95907063 12 10 C10.38219843 11.61780157 10.77727853 13.45635518 10.68359375 15.69140625 C10.64169922 16.63564453 10.59980469 17.57988281 10.55664062 18.55273438 C10.51732422 19.54595703 10.47800781 20.53917969 10.4375 21.5625 C10.39431641 22.55958984 10.35113281 23.55667969 10.30664062 24.58398438 C10.20019833 27.05581111 10.09956241 29.5278866 10 32 C6.7 32 3.4 32 0 32 C0 21.44 0 10.88 0 0 Z " fill="#FDF5F6" transform="translate(957,902)"/>
<path d="M0 0 C11.22 0 22.44 0 34 0 C34 1.98 34 3.96 34 6 C33.35450195 6.26216309 32.70900391 6.52432617 32.04394531 6.79443359 C29.1119585 7.98631101 26.18097185 9.18062897 23.25 10.375 C21.72632813 10.99375 21.72632813 10.99375 20.171875 11.625 C19.1921875 12.02460938 18.2125 12.42421875 17.203125 12.8359375 C16.30239258 13.20251465 15.40166016 13.5690918 14.47363281 13.94677734 C12.26622882 14.88664517 10.13105418 15.89968019 8 17 C8.71655762 17.2673999 9.43311523 17.5347998 10.17138672 17.81030273 C13.40635118 19.01822933 16.64068218 20.22784311 19.875 21.4375 C21.00292969 21.85837891 22.13085938 22.27925781 23.29296875 22.71289062 C24.36933594 23.11572266 25.44570313 23.51855469 26.5546875 23.93359375 C27.54968262 24.30540771 28.54467773 24.67722168 29.56982422 25.06030273 C32 26 32 26 34 27 C34 28.98 34 30.96 34 33 C22.78 33 11.56 33 0 33 C0 31.68 0 30.36 0 29 C12.375 28.505 12.375 28.505 25 28 C23.27910156 27.39671875 21.55820312 26.7934375 19.78515625 26.171875 C17.54396867 25.36542257 15.30309944 24.55808504 13.0625 23.75 C11.92619141 23.35425781 10.78988281 22.95851563 9.61914062 22.55078125 C8.53955078 22.15761719 7.45996094 21.76445312 6.34765625 21.359375 C5.34742432 21.00327148 4.34719238 20.64716797 3.31665039 20.28027344 C1 19 1 19 0.16577148 16.85253906 C0.11106689 16.24120117 0.0563623 15.62986328 0 15 C7.90053968 11.39624506 15.92853615 8.19949918 24 5 C16.08 4.67 8.16 4.34 0 4 C0 2.68 0 1.36 0 0 Z " fill="#D7273E" transform="translate(946,298)"/>
<path d="M0 0 C9.04541033 5.37071238 15.9802628 13.33052246 19.22265625 23.41796875 C21.29472914 34.44220123 19.22523441 44.41548129 13.06640625 53.64453125 C6.75563814 62.02468403 -0.2552846 66.05529573 -10.375 68.55859375 C-19.16573524 69.36801905 -26.73744497 69.20894438 -34.375 64.55859375 C-35.921875 63.69234375 -35.921875 63.69234375 -37.5 62.80859375 C-44.66660894 57.19994327 -50.68983881 49.69979834 -52.375 40.55859375 C-53.08146056 28.12760508 -52.54124483 18.51689989 -44.32421875 8.62890625 C-41.29659878 5.41319766 -38.12298259 2.88517162 -34.375 0.55859375 C-33.41207031 -0.06208984 -33.41207031 -0.06208984 -32.4296875 -0.6953125 C-22.546125 -6.08805477 -9.82776006 -4.71358601 0 0 Z M-42.83984375 9.48046875 C-50.10290802 19.31240309 -52.15182201 28.59776079 -50.375 40.55859375 C-48.04065074 50.03455945 -43.12086581 56.77841888 -35 62.12109375 C-26.68391578 66.93566883 -18.86296974 67.38890772 -9.375 66.55859375 C0.85765805 63.75942168 7.67625557 58.88750222 13.30078125 49.94140625 C18.18034387 41.16107233 19.03362671 32.16091058 16.5 22.43359375 C13.03742858 12.31839669 6.80000946 6.03898855 -2.1328125 0.4609375 C-15.53860445 -6.00149584 -33.29502012 -1.3072926 -42.83984375 9.48046875 Z " fill="#DD485C" transform="translate(975.375,753.44140625)"/>
<path d="M0 0 C11.22 0 22.44 0 34 0 C34 6 34 6 32.58227539 7.59570312 C31.92735107 7.98693359 31.27242676 8.37816406 30.59765625 8.78125 C29.87126953 9.23113281 29.14488281 9.68101562 28.39648438 10.14453125 C27.62626953 10.59183594 26.85605469 11.03914063 26.0625 11.5 C24.57376561 12.40550541 23.08548584 13.31175869 21.59765625 14.21875 C20.08042969 15.1365625 18.56320312 16.054375 17 17 C12.545 19.97 12.545 19.97 8 23 C20.87 23.495 20.87 23.495 34 24 C34 25.32 34 26.64 34 28 C22.78 28 11.56 28 0 28 C0 26.02 0 24.04 0 22 C2.15551758 19.97363281 2.15551758 19.97363281 5.14453125 18.203125 C6.74844727 17.23052734 6.74844727 17.23052734 8.38476562 16.23828125 C9.51591797 15.58214844 10.64707031 14.92601562 11.8125 14.25 C12.93205078 13.57839844 14.05160156 12.90679687 15.20507812 12.21484375 C17.28282731 10.96944214 19.36607925 9.7331456 21.45629883 8.50878906 C23.3372442 7.3931117 25.1803588 6.21309413 27 5 C18.09 4.67 9.18 4.34 0 4 C0 2.68 0 1.36 0 0 Z " fill="#D72940" transform="translate(946,419)"/>
<path d="M0 0 C4.87605804 4.62600378 7.53466776 8.19311023 7.8125 15 C7.76553617 20.33822201 6.23695334 24.48305098 2.4375 28.3125 C0.265625 29.02734375 0.265625 29.02734375 -1.5625 29.3125 C-1.75 27 -1.75 27 -1.5625 24.3125 C-0.125 22.6875 -0.125 22.6875 1.4375 21.3125 C2.67509246 17.59972262 2.99403215 14.17062154 2.4375 10.3125 C0.3130173 6.86937286 -0.71102641 5.59632453 -4.5625 4.3125 C-6.51725009 4.1677037 -8.4776138 4.09182498 -10.4375 4.0625 C-11.46617187 4.03671875 -12.49484375 4.0109375 -13.5546875 3.984375 C-16.97220089 4.35719464 -18.79918586 5.30995619 -21.5625 7.3125 C-24.13762807 10.74600409 -23.91572482 14.14444713 -23.5625 18.3125 C-22.897058 21.13643454 -22.10497193 22.74171346 -20.5625 25.3125 C-17.47880113 26.36999557 -17.47880113 26.36999557 -14.5625 26.3125 C-14.5625 23.0125 -14.5625 19.7125 -14.5625 16.3125 C-13.2425 16.3125 -11.9225 16.3125 -10.5625 16.3125 C-10.5625 20.9325 -10.5625 25.5525 -10.5625 30.3125 C-21.99113176 30.68116554 -21.99113176 30.68116554 -24.32421875 29.17578125 C-28.48282755 22.91819009 -28.28885438 15.53007203 -27.5625 8.3125 C-25.65968076 3.97407213 -23.08901883 1.20684303 -18.8203125 -0.9921875 C-12.59011733 -2.91082892 -5.86565928 -2.77847019 0 0 Z " fill="#D82C43" transform="translate(973.5625,190.6875)"/>
<path d="M0 0 C11.22 0 22.44 0 34 0 C34 8.58 34 17.16 34 26 C32.68 26 31.36 26 30 26 C30 19.07 30 12.14 30 5 C26.7 5 23.4 5 20 5 C20 11.27 20 17.54 20 24 C18.68 24 17.36 24 16 24 C16 17.4 16 10.8 16 4 C12.04 4 8.08 4 4 4 C4 11.59 4 19.18 4 27 C2.68 27 1.36 27 0 27 C0 18.09 0 9.18 0 0 Z " fill="#D93147" transform="translate(946,265)"/>
<path d="M0 0 C11.22 0 22.44 0 34 0 C34 8.58 34 17.16 34 26 C32.68 26 31.36 26 30 26 C30 19.07 30 12.14 30 5 C26.37 5 22.74 5 19 5 C19 11.6 19 18.2 19 25 C18.01 25 17.02 25 16 25 C16 18.4 16 11.8 16 5 C12.04 5 8.08 5 4 5 C4 12.26 4 19.52 4 27 C2.68 27 1.36 27 0 27 C0 18.09 0 9.18 0 0 Z " fill="#D82E44" transform="translate(946,386)"/>
<path d="M0 0 C11.22 0 22.44 0 34 0 C34 8.58 34 17.16 34 26 C32.68 26 31.36 26 30 26 C30 19.07 30 12.14 30 5 C26.37 5 22.74 5 19 5 C19 11.6 19 18.2 19 25 C18.01 25 17.02 25 16 25 C16 18.4 16 11.8 16 5 C12.04 5 8.08 5 4 5 C4 12.26 4 19.52 4 27 C2.68 27 1.36 27 0 27 C0 18.09 0 9.18 0 0 Z " fill="#D82E44" transform="translate(946,339)"/>
<path d="M0 0 C1.32 0 2.64 0 4 0 C4 31.02 4 62.04 4 94 C2.68 94 1.36 94 0 94 C0 62.98 0 31.96 0 0 Z " fill="#D93147" transform="translate(957,495)"/>
<path d="M0 0 C0 1.32 0 2.64 0 4 C-0.825 4.70125 -1.65 5.4025 -2.5 6.125 C-5.70794893 9.81414127 -5.49312168 11.97211397 -5.37109375 16.6953125 C-5.12028411 19.26956433 -5.12028411 19.26956433 -3 22 C0.08365871 22.2502157 0.08365871 22.2502157 3 22 C4.83967723 17.97023082 6.28341253 14.09276948 7.4375 9.8125 C8.581242 5.93910571 9.43731702 3.23940073 13 1 C16.0749342 0.39838244 17.96457805 0.37057877 20.68359375 2.0234375 C23.4151973 4.18513815 24.88822667 5.66468002 26 9 C26.53642018 14.99346396 26.46993814 19.8593509 23 25 C20 27 20 27 17 27 C17 25.35 17 23.7 17 22 C17.99 22 18.98 22 20 22 C20.84604751 19.05897771 21.13522521 16.43233732 21.125 13.375 C21.12757813 12.59898437 21.13015625 11.82296875 21.1328125 11.0234375 C21.12673369 8.93040752 21.12673369 8.93040752 20 7 C18.02 7 16.04 7 14 7 C13.5875 8.093125 13.175 9.18625 12.75 10.3125 C12.47671875 11.03308594 12.2034375 11.75367188 11.921875 12.49609375 C11.26083229 14.29155298 10.62868035 16.09775054 10.015625 17.91015625 C9.51289062 19.37775391 9.51289062 19.37775391 9 20.875 C8.5359375 22.26332031 8.5359375 22.26332031 8.0625 23.6796875 C7 26 7 26 4 28 C0.625 28.4375 0.625 28.4375 -3 28 C-5.63016161 25.8272578 -7.47336894 24.05326212 -9 21 C-9.17721577 18.54512577 -9.27736821 16.14438336 -9.3125 13.6875 C-9.34988281 12.37136719 -9.38726563 11.05523437 -9.42578125 9.69921875 C-8.94219336 5.49777168 -7.96928843 3.93623513 -5 1 C-3 0 -3 0 0 0 Z " fill="#D82F45" transform="translate(955,142)"/>
<path d="M0 0 C1.21171875 0.00322266 2.4234375 0.00644531 3.671875 0.00976562 C4.94289063 0.01814453 6.21390625 0.02652344 7.5234375 0.03515625 C8.8021875 0.03966797 10.0809375 0.04417969 11.3984375 0.04882812 C14.56515042 0.06064422 17.73177106 0.0771181 20.8984375 0.09765625 C20.8984375 1.41765625 20.8984375 2.73765625 20.8984375 4.09765625 C20.16729736 4.10176514 19.43615723 4.10587402 18.68286133 4.11010742 C15.35807443 4.14307834 12.03511134 4.21372772 8.7109375 4.28515625 C7.56044922 4.29095703 6.40996094 4.29675781 5.22460938 4.30273438 C-1.60868106 4.256288 -1.60868106 4.256288 -7.40234375 7.359375 C-9.21740582 10.28433709 -9.65293618 11.3799533 -9.1015625 14.72265625 C-8.9984375 15.47804687 -8.8953125 16.2334375 -8.7890625 17.01171875 C-7.95077284 19.55516577 -7.23023378 20.46801206 -5.1015625 22.09765625 C-2.2986896 22.60372985 -2.2986896 22.60372985 0.87890625 22.609375 C2.62397461 22.66254883 2.62397461 22.66254883 4.40429688 22.71679688 C5.61923828 22.73935547 6.83417969 22.76191406 8.0859375 22.78515625 C9.31248047 22.81931641 10.53902344 22.85347656 11.80273438 22.88867188 C14.83454428 22.97125035 17.86606129 23.04036994 20.8984375 23.09765625 C20.8984375 24.74765625 20.8984375 26.39765625 20.8984375 28.09765625 C16.85701535 28.21427886 12.81602885 28.28504975 8.7734375 28.34765625 C7.63132812 28.38117188 6.48921875 28.4146875 5.3125 28.44921875 C-5.45727107 28.57444865 -5.45727107 28.57444865 -10.1015625 24.09765625 C-13.63525564 19.53829371 -13.65538176 15.58800298 -13.53125 9.98828125 C-12.88290716 5.62670213 -11.37224981 3.97897603 -8.1015625 1.09765625 C-5.33538687 -0.28543156 -3.0913825 -0.01444571 0 0 Z " fill="#D72940" transform="translate(959.1015625,228.90234375)"/>
<path d="M0 0 C2.97 0 5.94 0 9 0 C9 10.23 9 20.46 9 31 C6.03 31 3.06 31 0 31 C0 20.77 0 10.54 0 0 Z " fill="#FEFBFB" transform="translate(942,903)"/>
<path d="M0 0 C11.22 0 22.44 0 34 0 C34 1.65 34 3.3 34 5 C22.78 5 11.56 5 0 5 C0 3.35 0 1.7 0 0 Z " fill="#D82F45" transform="translate(946,177)"/>
<path d="M0 0 C0.66 0.66 1.32 1.32 2 2 C1.625 5.625 1.625 5.625 1 9 C-5.42548263 10.33359073 -5.42548263 10.33359073 -7.9375 8.875 C-9.37604008 6.33639987 -9.50262362 4.87213496 -9 2 C-6.07557433 -1.24936186 -4.04996841 -1.38551551 0 0 Z " fill="#FCF3F4" transform="translate(950,888)"/>
<path d="M0 0 C10.98709879 -0.87663022 19.9653629 1.27716824 28.5 8.5 C33.21238109 13.03603419 36.37203592 16.24938615 37 23 C35.45729848 20.95696285 33.93450616 18.90731378 32.45703125 16.81640625 C26.17115128 8.20131659 19.3786041 4.27978554 9 2 C5.99249146 1.54107647 3.03584417 1.24482614 0 1 C0 0.67 0 0.34 0 0 Z " fill="#D93349" transform="translate(954,750)"/>
<path d="M0 0 C0.33 0.99 0.66 1.98 1 3 C-3.4133984 11.0912304 -9.63620402 16.33166843 -18 20 C-18.99 19.34 -19.98 18.68 -21 18 C-20.33613281 17.69707031 -19.67226563 17.39414062 -18.98828125 17.08203125 C-10.44223073 13.02733575 -5.24254379 7.86381569 0 0 Z " fill="#DA374D" transform="translate(990,800)"/>
<path d="M0 0 C0.99 0.33 1.98 0.66 3 1 C2.49339844 1.82177734 2.49339844 1.82177734 1.9765625 2.66015625 C-2.32858014 10.31236064 -3.22902844 17.36972138 -4 26 C-4.33 26 -4.66 26 -5 26 C-5.36943877 16.38090909 -5.46089387 8.1913408 0 0 Z " fill="#D9354A" transform="translate(928,766)"/>
<path d="M0 0 C0.33 0 0.66 0 1 0 C1.03738281 0.83402344 1.07476563 1.66804687 1.11328125 2.52734375 C1.52381216 9.5546669 2.44234969 15.43907095 5 22 C4.01 22 3.02 22 2 22 C-1.42546443 14.51042522 -1.03335117 8.05515909 0 0 Z " fill="#DE4F62" transform="translate(924,781)"/>
<path d="M0 0 C3.38746512 1.12915504 4.37451366 2.22743073 6.6875 4.875 C7.31011719 5.57367187 7.93273437 6.27234375 8.57421875 6.9921875 C10 9 10 9 10 12 C5.40493818 8.44984265 2.23545746 5.52289491 0 0 Z " fill="#D9354B" transform="translate(927,803)"/>
<path d="M0 0 C3.21852831 0.63065757 5.50801069 1.78020695 8.25 3.5625 C8.95640625 4.01753906 9.6628125 4.47257813 10.390625 4.94140625 C11.18726563 5.46541016 11.18726563 5.46541016 12 6 C11.01 6.495 11.01 6.495 10 7 C7.6171875 6.00390625 7.6171875 6.00390625 4.875 4.5625 C3.96492187 4.08941406 3.05484375 3.61632812 2.1171875 3.12890625 C1.41851563 2.75636719 0.71984375 2.38382813 0 2 C0 1.34 0 0.68 0 0 Z " fill="#DC4358" transform="translate(937,814)"/>
<path d="M0 0 C1.65 0 3.3 0 5 0 C5 1.65 5 3.3 5 5 C3.35 5 1.7 5 0 5 C0 3.35 0 1.7 0 0 Z " fill="#DB3E52" transform="translate(967,456)"/>
<path d="M0 0 C1.65 0 3.3 0 5 0 C5 1.65 5 3.3 5 5 C3.35 5 1.7 5 0 5 C0 3.35 0 1.7 0 0 Z " fill="#DA354B" transform="translate(946,456)"/>
<path d="M0 0 C1.96713413 2.95070119 2.65358161 4.53581611 3 8 C2.34 8.99 1.68 9.98 1 11 C-0.17571451 7.32589215 -0.07366746 3.83070817 0 0 Z " fill="#DF5164" transform="translate(991,770)"/>
</svg>
