<?xml version="1.0" encoding="UTF-8"?>
<!DOCTYPE svg PUBLIC "-//W3C//DTD SVG 1.1//EN" "http://www.w3.org/Graphics/SVG/1.1/DTD/svg11.dtd">
<svg xmlns="http://www.w3.org/2000/svg" version="1.1" width="383px" height="652px" style="shape-rendering:geometricPrecision; text-rendering:geometricPrecision; image-rendering:optimizeQuality; fill-rule:evenodd; clip-rule:evenodd" xmlns:xlink="http://www.w3.org/1999/xlink">
<g><path style="opacity:1" fill="#db8a92" d="M 195.5,90.5 C 195.649,89.448 195.483,88.448 195,87.5C 194.667,87.8333 194.333,88.1667 194,88.5C 193.501,92.1516 193.335,95.8183 193.5,99.5C 190.51,94.2614 191.176,89.4281 195.5,85C 196.448,84.5172 197.448,84.3505 198.5,84.5C 198.975,87.3126 197.975,89.3126 195.5,90.5 Z"/></g>
<g><path style="opacity:0.424" fill="#eba1ae" d="M 211.5,86.5 C 212.906,86.9731 213.573,87.9731 213.5,89.5C 212.094,89.0269 211.427,88.0269 211.5,86.5 Z"/></g>
<g><path style="opacity:0.773" fill="#ea9aa1" d="M 211.5,86.5 C 205.109,86.2854 204.942,87.2854 211,89.5C 211.796,92.0385 211.629,94.3718 210.5,96.5C 210.662,94.4727 210.495,92.4727 210,90.5C 209.586,90.0426 209.086,89.7093 208.5,89.5C 206.79,91.6432 205.457,93.9765 204.5,96.5C 205.008,93.8239 205.175,91.1572 205,88.5C 203.067,91.8928 201.9,95.5595 201.5,99.5C 199.585,99.7845 197.919,99.4511 196.5,98.5C 197.833,98.5 199.167,98.5 200.5,98.5C 200.734,93.7054 202.4,89.5387 205.5,86C 207.712,85.2109 209.712,85.3775 211.5,86.5 Z"/></g>
<g><path style="opacity:0.976" fill="#c14856" d="M 195.5,90.5 C 194.848,91.4486 194.514,92.6153 194.5,94C 194.307,96.0081 194.974,97.5081 196.5,98.5C 197.919,99.4511 199.585,99.7845 201.5,99.5C 201.9,95.5595 203.067,91.8928 205,88.5C 205.175,91.1572 205.008,93.8239 204.5,96.5C 204.737,97.791 204.404,98.791 203.5,99.5C 202.5,99.8333 201.833,100.5 201.5,101.5C 198.282,103.184 195.615,102.517 193.5,99.5C 193.335,95.8183 193.501,92.1516 194,88.5C 194.333,88.1667 194.667,87.8333 195,87.5C 195.483,88.448 195.649,89.448 195.5,90.5 Z"/></g>
<g><path style="opacity:0.263" fill="#fba6b5" d="M 195.5,90.5 C 195.401,93.2372 195.735,95.9039 196.5,98.5C 194.974,97.5081 194.307,96.0081 194.5,94C 194.514,92.6153 194.848,91.4486 195.5,90.5 Z"/></g>
<g><path style="opacity:0.918" fill="#c75567" d="M 211.5,86.5 C 211.427,88.0269 212.094,89.0269 213.5,89.5C 214.833,92.5 214.833,95.5 213.5,98.5C 210.588,101.538 209.588,101.204 210.5,97.5C 210.5,97.1667 210.5,96.8333 210.5,96.5C 211.629,94.3718 211.796,92.0385 211,89.5C 204.942,87.2854 205.109,86.2854 211.5,86.5 Z"/></g>
<g><path style="opacity:0.714" fill="#e6b8bc" d="M 210.5,97.5 C 209.588,101.204 210.588,101.538 213.5,98.5C 213.142,100.701 211.808,102.035 209.5,102.5C 206.577,100.039 206.911,98.3721 210.5,97.5 Z"/></g>
<g><path style="opacity:0.004" fill="#f9d0d0" d="M 203.5,99.5 C 203.5,100.833 202.833,101.5 201.5,101.5C 201.833,100.5 202.5,99.8333 203.5,99.5 Z"/></g>
<g><path style="opacity:0.627" fill="#e88f9a" d="M 213.5,106.5 C 214.404,107.209 214.737,108.209 214.5,109.5C 207.167,109.5 199.833,109.5 192.5,109.5C 192.5,108.167 192.5,106.833 192.5,105.5C 199.687,105.175 206.687,105.509 213.5,106.5 Z"/></g>
<g><path style="opacity:1" fill="#b22e3e" d="M 213.5,106.5 C 210.572,107.82 207.239,108.486 203.5,108.5C 200.167,108.167 196.833,107.833 193.5,107.5C 200.134,106.503 206.8,106.17 213.5,106.5 Z"/></g>
<g><path style="opacity:1" fill="#cf6871" d="M 195.5,121.5 C 194.853,122.274 194.52,123.274 194.5,124.5C 194.34,126.355 195.007,127.688 196.5,128.5C 196.5,128.833 196.5,129.167 196.5,129.5C 197.919,130.451 199.585,130.784 201.5,130.5C 201.338,128.473 201.505,126.473 202,124.5C 202.497,127.146 202.664,129.813 202.5,132.5C 200.167,132.5 197.833,132.5 195.5,132.5C 190.908,127.664 190.408,122.331 194,116.5C 200.664,111.035 206.997,111.369 213,117.5C 215,121.833 215,126.167 213,130.5C 210.57,133.758 208.736,133.758 207.5,130.5C 213.29,120.271 210.29,116.104 198.5,118C 197.364,119.145 196.364,120.312 195.5,121.5 Z"/></g>
<g><path style="opacity:0.396" fill="#f99ea8" d="M 195.5,121.5 C 195.448,123.903 195.781,126.236 196.5,128.5C 195.007,127.688 194.34,126.355 194.5,124.5C 194.52,123.274 194.853,122.274 195.5,121.5 Z"/></g>
<g><path style="opacity:0.659" fill="#e2838f" d="M 195.5,132.5 C 197.833,132.5 200.167,132.5 202.5,132.5C 202.664,129.813 202.497,127.146 202,124.5C 201.505,126.473 201.338,128.473 201.5,130.5C 199.585,130.784 197.919,130.451 196.5,129.5C 197.833,129.5 199.167,129.5 200.5,129.5C 200.5,127.5 200.5,125.5 200.5,123.5C 201.5,123.5 202.5,123.5 203.5,123.5C 203.5,126.833 203.5,130.167 203.5,133.5C 200.615,133.806 197.948,133.473 195.5,132.5 Z"/></g>
<g><path style="opacity:0.904" fill="#d56471" d="M 213.5,137.5 C 211.257,138.812 208.59,139.478 205.5,139.5C 202.41,139.478 199.743,138.812 197.5,137.5C 202.933,136.198 208.266,136.198 213.5,137.5 Z"/></g>
<g><path style="opacity:1" fill="#d68389" d="M 197.5,137.5 C 199.743,138.812 202.41,139.478 205.5,139.5C 208.59,139.478 211.257,138.812 213.5,137.5C 214.791,138.542 214.791,139.708 213.5,141C 208.167,141.333 202.833,141.667 197.5,142C 196.956,142.717 196.289,143.217 195.5,143.5C 194.698,144.952 194.198,146.618 194,148.5C 193.366,145.445 193.532,142.445 194.5,139.5C 194.973,138.094 195.973,137.427 197.5,137.5 Z"/></g>
<g><path style="opacity:0.969" fill="#e08594" d="M 194.5,139.5 C 193.532,142.445 193.366,145.445 194,148.5C 194.198,146.618 194.698,144.952 195.5,143.5C 195.166,146.188 195.832,148.521 197.5,150.5C 193.625,149.952 193.625,150.952 197.5,153.5C 197.5,153.833 197.5,154.167 197.5,154.5C 192.742,152.434 190.908,148.768 192,143.5C 192.2,141.68 193.034,140.347 194.5,139.5 Z"/></g>
<g><path style="opacity:1" fill="#b72540" d="M 197.5,150.5 C 197.611,151.117 197.944,151.617 198.5,152C 203.167,152.333 207.833,152.667 212.5,153C 207.511,153.499 202.511,153.666 197.5,153.5C 193.625,150.952 193.625,149.952 197.5,150.5 Z"/></g>
<g><path style="opacity:0.937" fill="#d77e89" d="M 197.5,150.5 C 203.106,151.407 208.773,151.74 214.5,151.5C 214.67,152.822 214.337,153.989 213.5,155C 208.083,155.781 202.75,155.615 197.5,154.5C 197.5,154.167 197.5,153.833 197.5,153.5C 202.511,153.666 207.511,153.499 212.5,153C 207.833,152.667 203.167,152.333 198.5,152C 197.944,151.617 197.611,151.117 197.5,150.5 Z"/></g>
<g><path style="opacity:0.941" fill="#ba3042" d="M 213.5,159.5 C 213.827,164.544 213.494,169.544 212.5,174.5C 211.509,170.555 211.176,166.555 211.5,162.5C 206.167,161.167 200.833,161.167 195.5,162.5C 194.675,166.647 194.175,170.981 194,175.5C 193.501,170.177 193.334,164.844 193.5,159.5C 200.167,159.5 206.833,159.5 213.5,159.5 Z"/></g>
<g><path style="opacity:0.624" fill="#e3959f" d="M 213.5,159.5 C 206.833,159.5 200.167,159.5 193.5,159.5C 193.334,164.844 193.501,170.177 194,175.5C 194.175,170.981 194.675,166.647 195.5,162.5C 195.5,167.167 195.5,171.833 195.5,176.5C 194.5,176.5 193.5,176.5 192.5,176.5C 192.5,170.5 192.5,164.5 192.5,158.5C 199.687,158.175 206.687,158.509 213.5,159.5 Z"/></g>
<g><path style="opacity:0.969" fill="#b44e5b" d="M 195.5,162.5 C 200.833,161.167 206.167,161.167 211.5,162.5C 211.167,162.5 210.833,162.5 210.5,162.5C 209.027,163.071 207.36,163.071 205.5,162.5C 204.834,166.021 204.167,169.687 203.5,173.5C 202.833,169.687 202.166,166.021 201.5,162.5C 199.297,162.935 197.297,162.935 195.5,162.5 Z"/></g>
<g><path style="opacity:0.18" fill="#fbc4cf" d="M 201.5,162.5 C 202.166,166.021 202.833,169.687 203.5,173.5C 204.167,169.687 204.834,166.021 205.5,162.5C 205.5,166.5 205.5,170.5 205.5,174.5C 204.167,174.5 202.833,174.5 201.5,174.5C 201.5,170.5 201.5,166.5 201.5,162.5 Z"/></g>
<g><path style="opacity:0.103" fill="#fbd2d6" d="M 213.5,159.5 C 214.488,164.64 214.821,169.974 214.5,175.5C 213.167,175.5 211.833,175.5 210.5,175.5C 210.5,171.167 210.5,166.833 210.5,162.5C 210.833,162.5 211.167,162.5 211.5,162.5C 211.176,166.555 211.509,170.555 212.5,174.5C 213.494,169.544 213.827,164.544 213.5,159.5 Z"/></g>
<g><path style="opacity:0.976" fill="#c43c4c" d="M 213.5,179.5 C 214.124,179.917 214.457,180.584 214.5,181.5C 214.253,182.713 213.586,183.38 212.5,183.5C 206.352,182.014 200.018,181.014 193.5,180.5C 200.134,179.503 206.8,179.17 213.5,179.5 Z"/></g>
<g><path style="opacity:0.251" fill="#f4b1b9" d="M 213.5,179.5 C 206.8,179.17 200.134,179.503 193.5,180.5C 200.018,181.014 206.352,182.014 212.5,183.5C 211.22,184.931 209.553,185.598 207.5,185.5C 208.66,183.797 207.993,183.131 205.5,183.5C 201.366,182.515 197.032,182.182 192.5,182.5C 192.5,181.167 192.5,179.833 192.5,178.5C 199.687,178.175 206.687,178.509 213.5,179.5 Z"/></g>
<g><path style="opacity:1" fill="#d27279" d="M 205.5,183.5 C 207.993,183.131 208.66,183.797 207.5,185.5C 205.208,187.267 202.542,188.267 199.5,188.5C 199.918,187.778 200.584,187.278 201.5,187C 199.203,186.982 196.869,187.149 194.5,187.5C 197.797,185.399 201.463,184.065 205.5,183.5 Z"/></g>
<g><path style="opacity:0.561" fill="#df9ca1" d="M 194.5,187.5 C 193.167,188.833 193.167,190.167 194.5,191.5C 193.414,191.38 192.747,190.713 192.5,189.5C 192.747,188.287 193.414,187.62 194.5,187.5 Z"/></g>
<g><path style="opacity:1" fill="#c1384c" d="M 199.5,188.5 C 197.97,189.211 196.637,190.211 195.5,191.5C 195.167,191.5 194.833,191.5 194.5,191.5C 193.167,190.167 193.167,188.833 194.5,187.5C 196.869,187.149 199.203,186.982 201.5,187C 200.584,187.278 199.918,187.778 199.5,188.5 Z"/></g>
<g><path style="opacity:0.98" fill="#db8791" d="M 199.5,188.5 C 200.306,189.728 201.306,190.728 202.5,191.5C 200.821,191.285 199.821,191.952 199.5,193.5C 197.847,193.34 196.514,192.674 195.5,191.5C 196.637,190.211 197.97,189.211 199.5,188.5 Z"/></g>
<g><path style="opacity:0.322" fill="#f5b3bb" d="M 205.5,192.5 C 208.542,192.733 211.208,193.733 213.5,195.5C 210.458,195.267 207.792,194.267 205.5,192.5 Z"/></g>
<g><path style="opacity:0.629" fill="#d48089" d="M 205.5,195.5 C 206.675,195.281 207.675,195.614 208.5,196.5C 203.1,196.869 198.1,197.869 193.5,199.5C 192.596,198.791 192.263,197.791 192.5,196.5C 197.032,196.818 201.366,196.485 205.5,195.5 Z"/></g>
<g><path style="opacity:1" fill="#c44753" d="M 202.5,191.5 C 203.791,191.263 204.791,191.596 205.5,192.5C 207.792,194.267 210.458,195.267 213.5,195.5C 214.434,196.568 214.768,197.901 214.5,199.5C 207.5,199.5 200.5,199.5 193.5,199.5C 198.1,197.869 203.1,196.869 208.5,196.5C 207.675,195.614 206.675,195.281 205.5,195.5C 203.421,195.029 201.421,194.363 199.5,193.5C 199.821,191.952 200.821,191.285 202.5,191.5 Z"/></g>
<g><path style="opacity:0.996" fill="#bc3b4b" d="M 213.5,204.5 C 213.827,209.544 213.494,214.544 212.5,219.5C 211.833,215.353 211.166,211.353 210.5,207.5C 208.833,207.5 207.167,207.5 205.5,207.5C 204.834,211.021 204.167,214.687 203.5,218.5C 202.833,214.687 202.166,211.021 201.5,207.5C 199.5,207.5 197.5,207.5 195.5,207.5C 194.675,211.647 194.175,215.981 194,220.5C 193.501,215.177 193.334,209.844 193.5,204.5C 200.167,204.5 206.833,204.5 213.5,204.5 Z"/></g>
<g><path style="opacity:0.102" fill="#fcced6" d="M 213.5,204.5 C 214.488,209.64 214.821,214.974 214.5,220.5C 213.167,220.5 211.833,220.5 210.5,220.5C 210.5,216.167 210.5,211.833 210.5,207.5C 211.166,211.353 211.833,215.353 212.5,219.5C 213.494,214.544 213.827,209.544 213.5,204.5 Z"/></g>
<g><path style="opacity:0.184" fill="#fcc2cf" d="M 201.5,207.5 C 202.166,211.021 202.833,214.687 203.5,218.5C 204.167,214.687 204.834,211.021 205.5,207.5C 205.5,211.5 205.5,215.5 205.5,219.5C 204.167,219.5 202.833,219.5 201.5,219.5C 201.5,215.5 201.5,211.5 201.5,207.5 Z"/></g>
<g><path style="opacity:0.631" fill="#e396a0" d="M 213.5,204.5 C 206.833,204.5 200.167,204.5 193.5,204.5C 193.334,209.844 193.501,215.177 194,220.5C 194.175,215.981 194.675,211.647 195.5,207.5C 195.5,212.167 195.5,216.833 195.5,221.5C 194.5,221.5 193.5,221.5 192.5,221.5C 192.5,215.5 192.5,209.5 192.5,203.5C 199.687,203.175 206.687,203.509 213.5,204.5 Z"/></g>
<g><path style="opacity:1" fill="#bc3b49" d="M 213.5,248.5 C 212.833,249.833 212.167,249.833 211.5,248.5C 211.5,244.167 211.5,239.833 211.5,235.5C 209.167,235.5 206.833,235.5 204.5,235.5C 204.5,239.5 204.5,243.5 204.5,247.5C 203.833,248.833 203.167,248.833 202.5,247.5C 202.5,243.5 202.5,239.5 202.5,235.5C 200.167,235.5 197.833,235.5 195.5,235.5C 194.675,239.647 194.175,243.981 194,248.5C 193.501,243.511 193.334,238.511 193.5,233.5C 200.167,233.5 206.833,233.5 213.5,233.5C 213.5,238.5 213.5,243.5 213.5,248.5 Z"/></g>
<g><path style="opacity:0.635" fill="#e39ea7" d="M 213.5,248.5 C 213.5,243.5 213.5,238.5 213.5,233.5C 206.833,233.5 200.167,233.5 193.5,233.5C 193.334,238.511 193.501,243.511 194,248.5C 194.175,243.981 194.675,239.647 195.5,235.5C 195.5,235.833 195.5,236.167 195.5,236.5C 195.5,240.833 195.5,245.167 195.5,249.5C 194.5,249.5 193.5,249.5 192.5,249.5C 192.334,243.824 192.501,238.157 193,232.5C 200,231.167 207,231.167 214,232.5C 214.817,238.016 214.651,243.35 213.5,248.5 Z"/></g>
<g><path style="opacity:0.188" fill="#fac7cc" d="M 211.5,248.5 C 210.517,244.702 210.183,240.702 210.5,236.5C 208.833,236.5 207.167,236.5 205.5,236.5C 205.815,240.371 205.482,244.038 204.5,247.5C 204.5,243.5 204.5,239.5 204.5,235.5C 206.833,235.5 209.167,235.5 211.5,235.5C 211.5,239.833 211.5,244.167 211.5,248.5 Z"/></g>
<g><path style="opacity:0.224" fill="#ffc7d3" d="M 195.5,236.5 C 195.5,236.167 195.5,235.833 195.5,235.5C 197.833,235.5 200.167,235.5 202.5,235.5C 202.5,239.5 202.5,243.5 202.5,247.5C 201.518,244.038 201.185,240.371 201.5,236.5C 199.5,236.5 197.5,236.5 195.5,236.5 Z"/></g>
<g><path style="opacity:1" fill="#dd848c" d="M 198.5,265.5 C 198.5,264.167 197.833,263.5 196.5,263.5C 199.989,260.863 203.655,258.363 207.5,256C 202.511,255.501 197.511,255.334 192.5,255.5C 192.5,254.167 192.5,252.833 192.5,251.5C 199.755,251.187 206.921,251.52 214,252.5C 214.72,254.112 214.554,255.612 213.5,257C 208.594,260.089 203.594,262.923 198.5,265.5 Z"/></g>
<g><path style="opacity:1" fill="#b12839" d="M 193.5,254.5 C 199.645,253.51 205.978,253.177 212.5,253.5C 212.5,254.5 212.5,255.5 212.5,256.5C 206.336,254.772 200.003,254.106 193.5,254.5 Z"/></g>
<g><path style="opacity:0.58" fill="#d9909a" d="M 198.5,265.5 C 203.64,266.488 208.974,266.821 214.5,266.5C 214.737,267.791 214.404,268.791 213.5,269.5C 208.563,267.866 203.229,266.866 197.5,266.5C 197.624,265.893 197.957,265.56 198.5,265.5 Z"/></g>
<g><path style="opacity:0.843" fill="#d46d75" d="M 196.5,263.5 C 197.833,263.5 198.5,264.167 198.5,265.5C 197.957,265.56 197.624,265.893 197.5,266.5C 203.229,266.866 208.563,267.866 213.5,269.5C 206.687,270.491 199.687,270.825 192.5,270.5C 191.68,266.778 193.013,264.445 196.5,263.5 Z"/></g>
<g><path style="opacity:0.812" fill="#dd9aab" d="M 205.5,273.5 C 209.161,273.35 210.161,274.85 208.5,278C 204.668,278.514 203.668,277.014 205.5,273.5 Z"/></g>
<g><path style="opacity:0.124" fill="#f0c2cd" d="M 195.5,274.5 C 196.434,275.568 196.768,276.901 196.5,278.5C 195.167,278.5 193.833,278.5 192.5,278.5C 192.5,276.833 192.5,275.167 192.5,273.5C 193.791,273.263 194.791,273.596 195.5,274.5 Z"/></g>
<g><path style="opacity:1" fill="#a73c56" d="M 195.5,274.5 C 195.719,275.675 195.386,276.675 194.5,277.5C 193.202,275.948 193.535,274.948 195.5,274.5 Z"/></g>
<g><path style="opacity:0.305" fill="#f8bdc2" d="M 199.5,297.5 C 200.496,297.414 201.329,297.748 202,298.5C 202.5,317.497 202.667,336.497 202.5,355.5C 201.167,355.5 199.833,355.5 198.5,355.5C 198.18,336.091 198.513,316.757 199.5,297.5 Z"/></g>
<g><path style="opacity:1" fill="#bf3145" d="M 199.5,299.5 C 200.832,308.308 201.498,317.475 201.5,327C 201.167,336.167 200.833,345.333 200.5,354.5C 199.5,336.179 199.167,317.845 199.5,299.5 Z"/></g>
<g><path style="opacity:1" fill="#bb3346" d="M 201.5,380.5 C 204.5,380.5 207.5,380.5 210.5,380.5C 210.5,382.833 210.5,385.167 210.5,387.5C 204.095,386.406 201.762,389.073 203.5,395.5C 202.366,393.034 202.199,390.367 203,387.5C 205.041,386.577 207.208,386.244 209.5,386.5C 209.5,385.167 209.5,383.833 209.5,382.5C 201.565,380.808 196.899,383.808 195.5,391.5C 195.5,389.5 195.5,387.5 195.5,385.5C 196.268,382.438 198.268,380.772 201.5,380.5 Z"/></g>
<g><path style="opacity:1" fill="#d0223a" d="M 203.5,395.5 C 205.833,395.5 208.167,395.5 210.5,395.5C 211.501,401.164 209.167,403.498 203.5,402.5C 205.264,399.054 204.097,397.054 200,396.5C 197.4,396.918 195.233,398.084 193.5,400C 194.756,400.417 195.423,401.25 195.5,402.5C 193.833,402.5 192.167,402.5 190.5,402.5C 190.5,400.167 190.5,397.833 190.5,395.5C 192.167,395.5 193.833,395.5 195.5,395.5C 195.5,394.167 195.5,392.833 195.5,391.5C 196.899,383.808 201.565,380.808 209.5,382.5C 209.5,383.833 209.5,385.167 209.5,386.5C 207.208,386.244 205.041,386.577 203,387.5C 202.199,390.367 202.366,393.034 203.5,395.5 Z"/></g>
<g><path style="opacity:0.196" fill="#fbc4cc" d="M 201.5,380.5 C 204.625,379.521 207.958,379.187 211.5,379.5C 211.5,382.5 211.5,385.5 211.5,388.5C 206.069,387.094 203.735,389.094 204.5,394.5C 206.833,394.5 209.167,394.5 211.5,394.5C 213.164,400.89 210.831,403.89 204.5,403.5C 204.825,411.019 204.492,418.352 203.5,425.5C 203.5,425.167 203.5,424.833 203.5,424.5C 203.5,417.167 203.5,409.833 203.5,402.5C 209.167,403.498 211.501,401.164 210.5,395.5C 208.167,395.5 205.833,395.5 203.5,395.5C 201.762,389.073 204.095,386.406 210.5,387.5C 210.5,385.167 210.5,382.833 210.5,380.5C 207.5,380.5 204.5,380.5 201.5,380.5 Z"/></g>
<g><path style="opacity:0.682" fill="#dd8794" d="M 195.5,385.5 C 195.5,387.5 195.5,389.5 195.5,391.5C 195.5,392.833 195.5,394.167 195.5,395.5C 193.833,395.5 192.167,395.5 190.5,395.5C 190.5,397.833 190.5,400.167 190.5,402.5C 192.167,402.5 193.833,402.5 195.5,402.5C 195.5,402.833 195.5,403.167 195.5,403.5C 195.5,410.5 195.5,417.5 195.5,424.5C 198.167,424.5 200.833,424.5 203.5,424.5C 203.5,424.833 203.5,425.167 203.5,425.5C 200.77,426.817 197.937,426.817 195,425.5C 194.5,418.174 194.334,410.841 194.5,403.5C 192.833,403.5 191.167,403.5 189.5,403.5C 189.5,400.5 189.5,397.5 189.5,394.5C 191.167,394.5 192.833,394.5 194.5,394.5C 194.19,391.287 194.523,388.287 195.5,385.5 Z"/></g>
<g><path style="opacity:1" fill="#d51f37" d="M 203.5,402.5 C 202.509,409.313 202.175,416.313 202.5,423.5C 200.5,423.5 198.5,423.5 196.5,423.5C 196.824,416.646 196.491,409.979 195.5,403.5C 195.5,403.167 195.5,402.833 195.5,402.5C 195.423,401.25 194.756,400.417 193.5,400C 195.233,398.084 197.4,396.918 200,396.5C 204.097,397.054 205.264,399.054 203.5,402.5 Z"/></g>
<g><path style="opacity:0.987" fill="#c02f44" d="M 203.5,402.5 C 203.5,409.833 203.5,417.167 203.5,424.5C 200.833,424.5 198.167,424.5 195.5,424.5C 195.5,417.5 195.5,410.5 195.5,403.5C 196.491,409.979 196.824,416.646 196.5,423.5C 198.5,423.5 200.5,423.5 202.5,423.5C 202.175,416.313 202.509,409.313 203.5,402.5 Z"/></g>
<g><path style="opacity:0.91" fill="#d59ca7" d="M 195.5,451.5 C 213.695,450.866 222.862,459.533 223,477.5C 217.592,494.425 206.425,499.925 189.5,494C 178.188,485.902 175.355,475.402 181,462.5C 184.514,457.003 189.348,453.337 195.5,451.5 Z M 194.5,454.5 C 209.647,452.49 218.313,458.99 220.5,474C 217.719,490.897 208.052,496.897 191.5,492C 181.858,485.942 178.691,477.442 182,466.5C 184.769,460.895 188.936,456.895 194.5,454.5 Z"/></g>
<g><path style="opacity:0.263" fill="#f9c0c2" d="M 207.5,464.5 C 205.435,464.517 203.435,464.85 201.5,465.5C 202.134,464.053 203.301,463.387 205,463.5C 206.07,463.528 206.903,463.861 207.5,464.5 Z"/></g>
<g><path style="opacity:0.012" fill="#f6d6da" d="M 207.5,464.5 C 209.167,464.5 210.833,464.5 212.5,464.5C 212.768,466.099 212.434,467.432 211.5,468.5C 211.5,467.5 211.5,466.5 211.5,465.5C 209.901,465.768 208.568,465.434 207.5,464.5 Z"/></g>
<g><path style="opacity:0.576" fill="#e8afb7" d="M 193.5,467.5 C 192.167,467.167 190.833,466.833 189.5,466.5C 190.908,464.14 192.241,464.474 193.5,467.5 Z"/></g>
<g><path style="opacity:0.961" fill="#d96d79" d="M 189.5,466.5 C 190.833,466.833 192.167,467.167 193.5,467.5C 194.167,467.833 194.833,468.167 195.5,468.5C 195.5,468.833 195.5,469.167 195.5,469.5C 194.417,469.461 193.417,469.127 192.5,468.5C 191.523,470.411 190.857,472.411 190.5,474.5C 189.733,473.828 189.066,472.995 188.5,472C 188.673,470.091 189.007,468.257 189.5,466.5 Z"/></g>
<g><path style="opacity:0.49" fill="#f7abb1" d="M 201.5,465.5 C 201.5,466.167 201.5,466.833 201.5,467.5C 200.596,468.209 200.263,469.209 200.5,470.5C 198.708,470.634 197.042,470.301 195.5,469.5C 195.5,469.167 195.5,468.833 195.5,468.5C 196.583,468.539 197.583,468.873 198.5,469.5C 199.15,467.816 200.15,466.483 201.5,465.5 Z"/></g>
<g><path style="opacity:0.78" fill="#f09ba3" d="M 190.5,474.5 C 191.833,475.833 193.167,477.167 194.5,478.5C 196.031,479.925 195.698,480.591 193.5,480.5C 191.615,478.947 190.615,476.947 190.5,474.5 Z"/></g>
<g><path style="opacity:0.997" fill="#d2535d" d="M 207.5,464.5 C 208.568,465.434 209.901,465.768 211.5,465.5C 211.5,466.5 211.5,467.5 211.5,468.5C 209.392,481.87 202.059,486.537 189.5,482.5C 190.833,481.833 192.167,481.167 193.5,480.5C 195.698,480.591 196.031,479.925 194.5,478.5C 194.393,476.621 194.893,476.288 196,477.5C 196.72,479.112 196.554,480.612 195.5,482C 196.167,482.167 196.833,482.333 197.5,482.5C 199.13,481.579 200.797,480.745 202.5,480C 201.483,478.951 201.316,477.784 202,476.5C 203.356,477.38 204.856,477.714 206.5,477.5C 207.242,475.406 207.909,473.239 208.5,471C 208.061,466.517 205.727,465.35 201.5,467.5C 201.5,466.833 201.5,466.167 201.5,465.5C 203.435,464.85 205.435,464.517 207.5,464.5 Z"/></g>
<g><path style="opacity:1" fill="#d22138" d="M 194.5,478.5 C 193.167,477.167 191.833,475.833 190.5,474.5C 190.857,472.411 191.523,470.411 192.5,468.5C 193.417,469.127 194.417,469.461 195.5,469.5C 197.042,470.301 198.708,470.634 200.5,470.5C 200.263,469.209 200.596,468.209 201.5,467.5C 205.727,465.35 208.061,466.517 208.5,471C 207.909,473.239 207.242,475.406 206.5,477.5C 204.856,477.714 203.356,477.38 202,476.5C 201.316,477.784 201.483,478.951 202.5,480C 200.797,480.745 199.13,481.579 197.5,482.5C 196.833,482.333 196.167,482.167 195.5,482C 196.554,480.612 196.72,479.112 196,477.5C 194.893,476.288 194.393,476.621 194.5,478.5 Z"/></g>
<g><path style="opacity:0.014" fill="#f8e1e1" d="M 193.5,480.5 C 192.167,481.167 190.833,481.833 189.5,482.5C 188.957,482.44 188.624,482.107 188.5,481.5C 190.045,480.548 191.712,480.215 193.5,480.5 Z"/></g>
<g><path style="opacity:0.761" fill="#dc8c94" d="M 222.5,524.5 C 209.039,523.195 195.706,523.195 182.5,524.5C 181.833,524.5 181.167,524.5 180.5,524.5C 181.347,523.034 182.68,522.2 184.5,522C 195.833,521.333 207.167,521.333 218.5,522C 220.32,522.2 221.653,523.034 222.5,524.5 Z"/></g>
<g><path style="opacity:1" fill="#d52037" d="M 182.5,524.5 C 194.5,524.5 206.5,524.5 218.5,524.5C 218.631,525.239 218.464,525.906 218,526.5C 209.251,525.516 200.418,525.183 191.5,525.5C 191.5,526.833 191.5,528.167 191.5,529.5C 195.29,529.008 195.956,529.841 193.5,532C 194.5,532.5 195.5,533 196.5,533.5C 197.524,532.147 198.857,531.48 200.5,531.5C 200.833,534.167 201.167,536.833 201.5,539.5C 200.167,539.5 198.833,539.5 197.5,539.5C 198.17,536.41 197.003,534.743 194,534.5C 192.624,534.684 191.791,535.351 191.5,536.5C 189.448,537.053 189.115,538.053 190.5,539.5C 190.756,541.776 192.09,542.943 194.5,543C 192.618,543.198 190.952,543.698 189.5,544.5C 188.513,549.305 188.179,554.305 188.5,559.5C 187.5,559.5 186.5,559.5 185.5,559.5C 185.5,560.833 185.5,562.167 185.5,563.5C 183.784,563.371 182.117,563.038 180.5,562.5C 180.333,550.495 180.5,538.495 181,526.5C 181.717,525.956 182.217,525.289 182.5,524.5 Z"/></g>
<g><path style="opacity:1" fill="#d62036" d="M 218.5,524.5 C 219.482,525.141 220.482,525.807 221.5,526.5C 222.497,533.468 222.83,540.468 222.5,547.5C 221.417,547.539 220.417,547.873 219.5,548.5C 218.614,547.675 218.281,546.675 218.5,545.5C 217.5,545.5 216.5,545.5 215.5,545.5C 215.5,545.167 215.5,544.833 215.5,544.5C 209.399,542.851 203.065,541.851 196.5,541.5C 197.338,541.158 197.672,540.492 197.5,539.5C 198.833,539.5 200.167,539.5 201.5,539.5C 201.167,536.833 200.833,534.167 200.5,531.5C 198.857,531.48 197.524,532.147 196.5,533.5C 195.5,533 194.5,532.5 193.5,532C 195.956,529.841 195.29,529.008 191.5,529.5C 191.5,528.167 191.5,526.833 191.5,525.5C 200.418,525.183 209.251,525.516 218,526.5C 218.464,525.906 218.631,525.239 218.5,524.5 Z"/></g>
<g><path style="opacity:0.384" fill="#f9acac" d="M 191.5,536.5 C 190.89,537.391 190.557,538.391 190.5,539.5C 189.115,538.053 189.448,537.053 191.5,536.5 Z"/></g>
<g><path style="opacity:1" fill="#dc7d87" d="M 197.5,539.5 C 197.672,540.492 197.338,541.158 196.5,541.5C 195.596,542.209 195.263,543.209 195.5,544.5C 193.585,544.216 191.919,544.549 190.5,545.5C 191.833,551.167 191.833,556.833 190.5,562.5C 189.51,556.69 189.177,550.69 189.5,544.5C 190.952,543.698 192.618,543.198 194.5,543C 192.09,542.943 190.756,541.776 190.5,539.5C 194.592,542.414 195.925,541.414 194.5,536.5C 193.473,535.209 192.473,535.209 191.5,536.5C 191.791,535.351 192.624,534.684 194,534.5C 197.003,534.743 198.17,536.41 197.5,539.5 Z"/></g>
<g><path style="opacity:0.592" fill="#e79ba6" d="M 215.5,544.5 C 215.5,544.833 215.5,545.167 215.5,545.5C 212.803,544.37 210.137,544.37 207.5,545.5C 208.134,544.053 209.301,543.387 211,543.5C 212.533,543.773 214.033,544.106 215.5,544.5 Z"/></g>
<g><path style="opacity:0.275" fill="#fcc7ce" d="M 207.5,545.5 C 207.189,546.478 206.522,547.145 205.5,547.5C 204.158,545.995 202.492,545.328 200.5,545.5C 200.5,551.167 200.5,556.833 200.5,562.5C 201.833,562.5 203.167,562.5 204.5,562.5C 204.185,558.629 204.518,554.962 205.5,551.5C 205.5,555.5 205.5,559.5 205.5,563.5C 203.5,563.5 201.5,563.5 199.5,563.5C 199.5,557.167 199.5,550.833 199.5,544.5C 202.237,544.401 204.904,544.735 207.5,545.5 Z"/></g>
<g><path style="opacity:1" fill="#d1575f" d="M 182.5,524.5 C 195.706,523.195 209.039,523.195 222.5,524.5C 223.222,524.918 223.722,525.584 224,526.5C 224.667,539.167 224.667,551.833 224,564.5C 222.871,566.141 221.371,567.141 219.5,567.5C 219.5,567.167 219.5,566.833 219.5,566.5C 219.34,564.801 219.506,563.134 220,561.5C 220.414,561.957 220.914,562.291 221.5,562.5C 222.494,557.544 222.827,552.544 222.5,547.5C 222.83,540.468 222.497,533.468 221.5,526.5C 220.482,525.807 219.482,525.141 218.5,524.5C 206.5,524.5 194.5,524.5 182.5,524.5 Z"/></g>
<g><path style="opacity:1" fill="#c44351" d="M 211.5,549.5 C 211.5,553.833 211.5,558.167 211.5,562.5C 210.679,559.359 210.179,556.025 210,552.5C 209,551.167 208,551.167 207,552.5C 206.823,556.356 206.323,560.023 205.5,563.5C 205.5,559.5 205.5,555.5 205.5,551.5C 206.533,548.401 208.533,547.734 211.5,549.5 Z"/></g>
<g><path style="opacity:0.505" fill="#e8979f" d="M 211.5,549.5 C 212.485,553.634 212.818,557.968 212.5,562.5C 214.167,562.5 215.833,562.5 217.5,562.5C 215.5,563.833 213.5,563.833 211.5,562.5C 211.5,558.167 211.5,553.833 211.5,549.5 Z"/></g>
<g><path style="opacity:1" fill="#cd243a" d="M 196.5,541.5 C 203.065,541.851 209.399,542.851 215.5,544.5C 214.033,544.106 212.533,543.773 211,543.5C 209.301,543.387 208.134,544.053 207.5,545.5C 204.904,544.735 202.237,544.401 199.5,544.5C 199.5,550.833 199.5,557.167 199.5,563.5C 202.159,563.917 204.492,564.917 206.5,566.5C 198.826,566.666 191.159,566.5 183.5,566C 181.944,565.28 180.944,564.113 180.5,562.5C 182.117,563.038 183.784,563.371 185.5,563.5C 185.5,562.167 185.5,560.833 185.5,559.5C 186.5,559.5 187.5,559.5 188.5,559.5C 188.179,554.305 188.513,549.305 189.5,544.5C 189.177,550.69 189.51,556.69 190.5,562.5C 192.265,563.461 194.265,563.795 196.5,563.5C 196.823,556.978 196.49,550.645 195.5,544.5C 195.263,543.209 195.596,542.209 196.5,541.5 Z M 190.5,545.5 C 192.167,545.5 193.833,545.5 195.5,545.5C 195.5,551.167 195.5,556.833 195.5,562.5C 193.833,562.5 192.167,562.5 190.5,562.5C 191.833,556.833 191.833,551.167 190.5,545.5 Z"/></g>
<g><path style="opacity:0.443" fill="#f899a4" d="M 190.5,545.5 C 191.919,544.549 193.585,544.216 195.5,544.5C 196.49,550.645 196.823,556.978 196.5,563.5C 194.265,563.795 192.265,563.461 190.5,562.5C 192.167,562.5 193.833,562.5 195.5,562.5C 195.5,556.833 195.5,551.167 195.5,545.5C 193.833,545.5 192.167,545.5 190.5,545.5 Z"/></g>
<g><path style="opacity:1" fill="#d42c3e" d="M 215.5,545.5 C 216.5,545.5 217.5,545.5 218.5,545.5C 218.281,546.675 218.614,547.675 219.5,548.5C 220.417,547.873 221.417,547.539 222.5,547.5C 222.827,552.544 222.494,557.544 221.5,562.5C 220.914,562.291 220.414,561.957 220,561.5C 219.506,563.134 219.34,564.801 219.5,566.5C 215.167,566.5 210.833,566.5 206.5,566.5C 204.492,564.917 202.159,563.917 199.5,563.5C 201.5,563.5 203.5,563.5 205.5,563.5C 206.323,560.023 206.823,556.356 207,552.5C 208,551.167 209,551.167 210,552.5C 210.179,556.025 210.679,559.359 211.5,562.5C 213.5,563.833 215.5,563.833 217.5,562.5C 217.949,556.641 217.283,550.975 215.5,545.5 Z"/></g>
<g><path style="opacity:0.988" fill="#d2656c" d="M 180.5,524.5 C 181.167,524.5 181.833,524.5 182.5,524.5C 182.217,525.289 181.717,525.956 181,526.5C 180.5,538.495 180.333,550.495 180.5,562.5C 180.944,564.113 181.944,565.28 183.5,566C 191.159,566.5 198.826,566.666 206.5,566.5C 210.833,566.5 215.167,566.5 219.5,566.5C 219.5,566.833 219.5,567.167 219.5,567.5C 207.34,568.66 195.007,568.827 182.5,568C 181.5,567.167 180.5,566.333 179.5,565.5C 178.352,552.212 178.185,538.879 179,525.5C 179.383,524.944 179.883,524.611 180.5,524.5 Z"/></g>
</svg>
