<?xml version="1.0" encoding="UTF-8"?>
<svg version="1.1" viewBox="0 0 1600 1600" width="1280" height="1280" xmlns="http://www.w3.org/2000/svg">
<path transform="translate(0)" d="m0 0h1600v1600h-1600v-1600z" fill="#000100"/>
<path transform="translate(1467)" d="m0 0h133v1600h-134c-0.33-12.9-0.66-25.7-1-39-0.33-0.66-0.66-1.32-1-2-0.274-2.94-0.497-5.87-0.684-8.81-0.124-1.82-0.249-3.63-0.373-5.45-0.191-2.86-0.38-5.72-0.566-8.58-0.181-2.76-0.371-5.52-0.561-8.29-0.0522-0.839-0.104-1.68-0.158-2.54-0.358-5.14-1.11-10.1-2.22-15.1-0.907-4.6-0.907-9.25-1.1-13.9-0.13-3.19-0.13-3.19-1.34-5.29-1.78-3.62-1.44-7.65-1.57-11.6-0.166-3.64-0.361-5.29-2.43-8.4-0.52-3.64-0.884-7.26-1.21-10.9-0.292-4.5-0.292-4.5-2.79-8.07-0.528-3.2-0.886-6.37-1.21-9.59-0.372-4.15-0.372-4.15-2.79-7.41-0.344-2.71-0.344-2.71-0.5-5.94-0.211-4.84-0.211-4.84-2.5-9.06-0.31-1.68-0.55-3.37-0.75-5.06-1.2-7.95-3.91-15.3-6.56-22.9-0.67-2-1.26-4.01-1.82-6.05-0.57-2.88-0.57-2.88-1.88-4.02-0.124-0.99-0.247-1.98-0.375-3-1.04-7.69-4.3-14.8-7.21-21.9-2.34-5.78-4.41-11.6-6.41-17.6-1.09-3.17-2.13-5.74-4-8.55-0.62-1.93-1.19-3.88-1.74-5.84-2.17-7.25-5.18-13.9-8.45-20.7-0.877-1.85-1.75-3.7-2.63-5.55-0.58-1.23-1.16-2.46-1.74-3.69-2.09-4.41-4.09-8.86-6.06-13.3-7.61-17.3-16.8-33.4-26.6-49.6-3.09-5.08-6.1-10.2-9.1-15.3-4.86-8.34-9.78-16.3-15.7-24-1.4-1.85-2.79-3.71-4.19-5.56-0.746-0.99-1.49-1.98-2.26-3-2.5-3.35-4.93-6.74-7.36-10.1-4.81-6.72-9.69-13.3-15-19.6-2.57-3.2-4.9-6.53-7.24-9.9-6.26-9.18-6.26-9.18-14.9-15.8v-2h-2v-2h-2c-3-3.46-3-3.46-3-6h-2c-1.36-1.64-2.69-3.32-4-5-1.65-1.68-3.32-3.35-5-5-12.8-12.7-12.8-12.7-16.5-17.1-3.13-3.68-6.59-6.96-10.1-10.2-0.551-0.516-1.1-1.03-1.67-1.56-2.46-2.26-4.72-4.13-7.6-5.85-0.694-0.419-1.39-0.838-2.1-1.27v-2c-0.795-0.331-0.795-0.331-1.61-0.668-3.25-1.81-5.92-4.21-8.71-6.64-5.19-4.48-5.19-4.48-10.7-8.56-3.05-2.16-5.39-4.46-8-7.12-7.15-7.01-14.9-12.4-23.3-17.9-2.44-1.6-4.81-3.27-7.19-4.96-3.43-2.42-6.92-4.68-10.5-6.87-3.25-2.07-6.36-4.32-9.48-6.57-2.52-1.7-5.11-3.19-7.76-4.68-3.08-1.79-6.01-3.81-8.95-5.81-2-1.34-4-2.67-6-4-1.64-1.09-3.29-2.19-4.93-3.29-9.6-6.17-19.9-10.8-30.2-15.7-3.75-1.78-7.47-3.62-11.2-5.48-0.638-0.321-1.28-0.641-1.93-0.971-2.5-1.26-4.99-2.52-7.49-3.78-4.7-2.38-9.42-4.73-14.1-7.06-0.865-0.427-1.73-0.854-2.62-1.29-22.5-11.1-45.6-19.8-69.4-27.7 0.66-1.32 1.32-2.64 2-4 0.571 9.22e-4 1.14 0.00184 1.73 0.00279 13.9 0.0221 27.8 0.0386 41.6 0.049 6.71 0.00516 13.4 0.0122 20.1 0.0236 6.47 0.0108 12.9 0.0168 19.4 0.0194 2.47 0.00185 4.95 0.00548 7.42 0.0109 3.45 0.00721 6.91 0.00826 10.4 0.0078 1.03 0.0036 2.07 0.00719 3.13 0.0109 0.935-0.00137 1.87-0.00275 2.83-0.00417 0.818 9.22e-4 1.64 0.00184 2.48 0.00279 1.87 0.0806 1.87 0.0806 2.86-1.12 1.66-0.0981 3.32-0.126 4.97-0.126 1.08-0.00261 2.17-0.00522 3.28-0.0079 1.21 0.00223 2.41 0.00446 3.65 0.00676 1.9-0.00234 1.9-0.00234 3.85-0.00473 3.54-0.0042 7.08-0.0021 10.6 9.86e-4 3.81 0.00225 7.62-0.00122 11.4-0.00398 7.47-0.00446 14.9-0.00348 22.4-5.87e-4 6.08 0.00225 12.2 0.00257 18.2 0.00148 0.863-1.53e-4 1.73-3.06e-4 2.62-4.64e-4 1.75-3.2e-4 3.51-6.44e-4 5.26-9.73e-4 16.5-0.00286 32.9 4.33e-4 49.4 0.0058 14.1 0.00446 28.3 0.0037 42.4-9.19e-4 16.4-0.00535 32.8-0.00746 49.2-0.00439 1.75 3.19e-4 3.5 6.33e-4 5.25 9.43e-4 0.861 1.54e-4 1.72 3.09e-4 2.61 4.68e-4 6.07 8.63e-4 12.1-5.93e-4 18.2-0.00295 7.4-0.00281 14.8-0.00204 22.2 0.00328 3.77 0.00263 7.55 0.00366 11.3 3.51e-4 4.09-0.00354 8.19 6.92e-4 12.3 0.00568 1.78-0.00335 1.78-0.00335 3.61-0.00676 5.84 0.0138 11.4 0.296 17.2 1.13 2.33 0.074 4.67 0.0952 7 0 0.33-0.33 0.66-0.66 1-1 2.38-0.101 4.73-0.14 7.11-0.133 0.717-9.57e-4 1.43-0.00191 2.17-0.0029 1.52-6.82e-4 3.04 0.00117 4.57 0.00534 2.32 0.00531 4.63 7.65e-5 6.95-0.00635 1.48 6.62e-4 2.96 0.00194 4.44 0.00391 0.688-0.00202 1.38-0.00405 2.08-0.00613 4.01 0.0192 7.75 0.44 11.7 1.14-0.00138-0.934-0.00138-0.934-0.00279-1.89-0.0221-15.1-0.0386-30.3-0.049-45.4-0.00516-7.32-0.0122-14.6-0.0236-22-0.00995-6.38-0.0164-12.8-0.0186-19.1-0.00131-3.38-0.00439-6.76-0.0116-10.1-0.00721-3.76-0.00826-7.53-0.0078-11.3-0.0036-1.13-0.00719-2.26-0.0109-3.42 0.00137-1.02 0.00275-2.04 0.00417-3.09-0.00138-1.34-0.00138-1.34-0.00279-2.7 0.123-2.01 0.123-2.01 1.12-3.01 0.099-1.98 0.13-3.96 0.125-5.94 0.00387-1.62 0.00387-1.62 0.00781-3.28 0.0573-2.74 0.0573-2.74-1.13-4.79-0.106-1.58-0.151-3.16-0.165-4.74-0.0112-1-0.0225-2-0.034-3.03-0.00733-1.1-0.0147-2.2-0.0222-3.34-0.0115-1.16-0.023-2.31-0.0349-3.5-0.0368-3.84-0.0664-7.68-0.0955-11.5-0.0173-1.99-0.0345-3.97-0.0522-5.96-0.0556-6.25-0.106-12.5-0.154-18.7-0.0491-6.45-0.105-12.9-0.165-19.4-0.0513-5.53-0.0987-11.1-0.143-16.6-0.0263-3.31-0.0544-6.61-0.0854-9.92-0.0338-3.69-0.061-7.37-0.0865-11.1-0.0114-1.1-0.0227-2.2-0.0345-3.33-0.00559-1-0.0112-2.01-0.017-3.04-7e-3 -0.872-0.014-1.74-0.0212-2.64 0.11-2.22 0.11-2.22 1.11-5.22h-479l-1-3c3.53-2.26 6.92-3.81 10.9-5.16l3.4-1.16c1.16-0.391 2.32-0.781 3.52-1.18 2.3-0.78 4.6-1.56 6.89-2.34 1.63-0.554 1.63-0.554 3.3-1.12 3.69-1.28 7.34-2.65 11-4.04 1.67-0.563 3.33-1.13 5-1.69 6.83-2.49 13.2-5.81 19.7-9.12 4.29-2.19 8.59-4.35 12.9-6.51 0.923-0.463 1.85-0.925 2.8-1.4 6.8-3.4 13.6-6.7 20.5-9.97 20.8-9.46 20.8-9.46 40-21.8 2.25-1.63 4.61-2.96 7.03-4.31 4.54-2.66 8.91-5.6 13.3-8.49 1.03-0.672 2.06-1.34 3.11-2.04 5.99-3.93 12-7.88 17.9-11.9 2.15-1.43 4.32-2.83 6.5-4.21 0.639-0.406 1.28-0.812 1.94-1.23 1.24-0.784 2.48-1.57 3.72-2.34 2.86-1.81 5.28-3.63 7.63-6.06 1.67-1.23 3.36-2.44 5.06-3.62 4.77-3.43 9.1-7.12 13.4-11.1 3.4-3.07 6.96-5.93 10.5-8.82 3.42-2.81 6.77-5.69 10.1-8.58 3.91-3.38 7.83-6.68 11.9-9.81 3.25-2.48 6.11-5.09 8.94-8.06 1.29-1.27 2.58-2.54 3.88-3.81 2.61-2.61 5.1-5.26 7.5-8.06 2.74-3.19 5.63-6.17 8.62-9.12 2.91-2.88 5.72-5.76 8.38-8.88 2.99-3.5 6.22-6.72 9.5-9.94 4.61-4.54 8.81-9.26 12.8-14.3 1.66-2.07 3.34-4.08 5.08-6.08 4.9-5.63 9.34-11 12.9-17.7 1.5-2.42 3.27-4.15 5.32-6.12 0.883-1.08 1.74-2.19 2.56-3.31 0.508-0.691 1.02-1.38 1.54-2.09 0.626-0.856 1.25-1.71 1.9-2.59 0.861-1.16 1.72-2.31 2.59-3.47 5.45-7.34 10.6-14.8 15.4-22.5 1.21-1.88 2.42-3.75 3.62-5.62 2.53-3.97 4.87-7.98 7.12-12.1 2.3-4.15 4.79-8.2 7.25-12.3 0.694-1.16 0.694-1.16 1.4-2.34 1.23-2.05 2.47-4.1 3.72-6.15 6.53-10.6 6.53-10.6 11.8-21.8 1.65-4.03 3.68-7.85 5.65-11.7 1.43-2.83 1.43-2.83 2.44-5.44 1.59-3.98 3.61-7.74 5.56-11.6 1.28-2.62 2.37-5.23 3.44-7.94 0.929-2 1.87-4 2.81-6 2.62-5.63 4.91-11.3 7.09-17.1 0.875-2.3 1.79-4.56 2.78-6.82 1.28-2.99 2.32-5.96 3.31-9.06 1.76-5.47 3.73-10.7 6-16 6.99-19.6 12.8-39.8 18-60 0.189-0.724 0.378-1.45 0.573-2.19 2.54-9.78 4.79-19.6 6.92-29.5 0.338-1.56 0.678-3.11 1.02-4.67 3.47-15.7 6.09-31.5 7.96-47.6 0.271-2.26 0.594-4.5 0.976-6.74 1.74-10.3 2.41-20.6 3.11-31 0.187-2.75 0.376-5.49 0.571-8.24 0.12-1.69 0.236-3.39 0.347-5.08 0.407-5.77 0.407-5.77 1.52-7.99 0.144-2.42 0.234-4.82 0.281-7.24 0.0276-1.08 0.0276-1.08 0.0558-2.18 0.0588-2.3 0.112-4.6 0.163-6.9 0.0679-3.02 0.142-6.03 0.219-9.05 0.0136-0.69 0.0272-1.38 0.0411-2.09 0.0946-3.7 0.506-6.88 1.24-10.5z" fill="#FBFCFE"/>
<path transform="translate(0)" d="m0 0h128l1 36 2 15c0.198 3.64 0.355 7.24 0.438 10.9 0.249 7.52 0.989 14.7 2.47 22 1.24 6.29 1.57 12.5 1.78 18.9 0.0696 3.35 0.0696 3.35 2.31 6.2 0.379 1.88 0.379 1.88 0.562 3.98 0.112 1.16 0.112 1.16 0.227 2.34 0.104 1.2 0.104 1.2 0.211 2.43 0.502 5.67 1.32 10.8 3 16.2 0.362 1.83 0.697 3.66 1 5.5 0.744 4.27 1.79 8.33 3 12.5 0.306 1.43 0.596 2.87 0.875 4.31 2.44 12.5 5.27 24.8 8.98 36.9 1.09 3.58 2.13 7.17 3.15 10.8 1.14 3.96 2.29 7.92 3.44 11.9 0.45 1.56 0.45 1.56 0.908 3.14 2.32 7.96 4.63 15.9 7.97 23.5 2.42 5.71 4.49 11.5 6.53 17.4 1.59 4.55 3.27 9.04 5.11 13.5 1.1 2.75 2.1 5.53 3.11 8.31 2.59 7.12 5.56 13.8 9.04 20.6 2.17 4.22 4.2 8.5 6.22 12.8 0.378 0.797 0.755 1.59 1.14 2.42 2.01 4.25 4 8.5 5.95 12.8 5.02 10.9 10.6 21.1 17 31.2 3.83 6.15 7.5 12.4 11.2 18.6 3.56 5.96 7.22 11.8 11 17.7 1.37 2.28 1.37 2.28 2.37 5.28h2c4 5.29 4 5.29 4 9h2c1.71 2.3 3.3 4.61 4.88 7 13 19.3 27.2 40.1 45 55.3 5.16 4.47 9.42 9.61 13.8 14.9 2.34 2.77 4.78 5.28 7.38 7.81 1.5 1.5 3 3 4.5 4.5l2.22 2.22c1.57 1.57 3.14 3.15 4.7 4.73 2.74 2.71 5.55 5.33 8.39 7.93 0.528 0.482 1.06 0.964 1.6 1.46 5.69 5.19 11.4 10.3 17.5 15 3.54 2.8 6.92 5.71 10.2 8.75 3.46 3.15 6.97 6.04 10.8 8.79 2.57 1.93 5.03 3.97 7.5 6.03 10.2 8.4 21.4 15.3 32.5 22.4 5.76 3.65 11.5 7.39 17.1 11.2 3.66 2.43 7.35 4.78 11.1 7.12 2.06 1.31 4.1 2.65 6.13 4 7.98 5.3 16.2 9.74 24.8 13.9 1.94 0.938 3.86 1.9 5.78 2.87l1.85 0.937c0.879 0.445 0.879 0.445 1.78 0.899 3.59 1.82 7.2 3.54 10.9 5.14 4.83 2.13 9.47 4.55 14.1 7.04 1.68 0.891 3.36 1.78 5.04 2.67l2.39 1.27c3.22 1.69 6.46 3.33 9.72 4.92 1.82 0.905 3.62 1.85 5.41 2.8 9.28 4.87 18.8 8.3 28.7 11.6 2.78 0.954 5.53 2 8.28 3.04 2.12 0.781 4.25 1.5 6.39 2.2l2.21 0.736c1.49 0.496 2.99 0.983 4.48 1.46l2.19 0.74c0.646 0.211 1.29 0.423 1.96 0.64 2.28 1.23 3.28 2.87 4.77 4.96-1.01-3.8e-4 -2.02-7.59e-4 -3.06-0.00115-44.5-0.0167-89.1-0.0321-134-0.0412-0.674-1.38e-4 -1.35-2.76e-4 -2.04-4.18e-4 -14.6-0.00299-29.3-0.00576-43.9-0.0083-7.18-0.00125-14.4-0.00254-21.5-0.00387-0.714-1.31e-4 -1.43-2.62e-4 -2.16-3.96e-4 -23.2-0.00427-46.4-0.0118-69.5-0.021-23.8-0.00942-47.6-0.0156-71.4-0.0176-3.36-2.88e-4 -6.72-6.14e-4 -10.1-9.62e-4 -0.661-6.74e-5 -1.32-1.35e-4 -2-2.04e-4 -11.3-0.00126-22.6-0.00659-34-0.0128-10-0.00527-20.1-0.00689-30.1-0.00558-5.81 6.44e-4 -11.6-3.78e-4 -17.4-0.0057-5.31-0.00483-10.6-0.00513-15.9-0.00169-1.93 4.26e-4 -3.86-8.71e-4 -5.79-0.00398-2.6-0.00396-5.21-0.00188-7.81 0.00184-1.15-0.00394-1.15-0.00394-2.32-0.00796-3.42-0.297-3.42-0.297-6.27 1.13-0.0965 1.38-0.124 2.77-0.123 4.15-0.00199 0.901-0.00398 1.8-0.00603 2.73 0.00291 1 0.00583 2 0.00883 3.03-8.54e-4 1.05-0.00171 2.11-0.00259 3.2-0.00166 3.56 0.00387 7.12 0.00932 10.7 2.82e-4 2.54 1.24e-4 5.08-4.43e-4 7.63-2.28e-4 5.49 0.00262 11 0.00824 16.5 0.00811 7.93 0.0107 15.9 0.012 23.8 0.00219 12.9 0.00885 25.7 0.0183 38.6 0.00917 12.5 0.0163 25 0.0205 37.5 3.94e-4 1.16 3.94e-4 1.16 7.96e-4 2.33 0.0013 3.86 0.00257 7.73 0.00381 11.6 0.0104 32.1 0.028 64.2 0.0503 96.2 1.81 0.0269 3.62 0.0463 5.44 0.0625 1.51 0.0174 1.51 0.0174 3.06 0.0352 2.44 0.188 2.44 0.188 3.5-1.1 1.83-0.0984 3.66-0.126 5.49-0.126 1.8-0.00391 1.8-0.00391 3.63-0.0079 1.35 0.00216 2.69 0.00442 4.04 0.00676 1.42-0.00115 2.84-0.00274 4.25-0.00473 3.91-0.0042 7.83-0.0021 11.7 9.86e-4 4.21 0.00225 8.43-0.00122 12.6-0.00398 8.26-0.00446 16.5-0.00348 24.8-5.87e-4 6.71 0.00225 13.4 0.00257 20.1 0.00148 0.954-1.53e-4 1.91-3.06e-4 2.89-4.64e-4 1.94-3.2e-4 3.87-6.44e-4 5.81-9.73e-4 18.2-0.00286 36.4 4.33e-4 54.6 0.0058 15.6 0.00447 31.2 0.00369 46.9-9.19e-4 18.1-0.00535 36.2-0.00746 54.4-0.00439 1.93 3.19e-4 3.86 6.33e-4 5.79 9.43e-4 0.95 1.54e-4 1.9 3.09e-4 2.88 4.68e-4 6.71 8.65e-4 13.4-5.97e-4 20.1-0.00295 8.17-0.0028 16.3-0.00206 24.5 0.00328 4.17 0.00263 8.34 0.00365 12.5 3.51e-4 3.82-0.00297 7.63-0.00136 11.4 0.00398 1.38 0.00112 2.77 5.38e-4 4.15-0.00188 1.87-0.00302 3.75 6.6e-4 5.62 0.00472 1.04 1.62e-4 2.09 3.25e-4 3.16 4.92e-4 2.58 0.125 2.58 0.125 5.58 1.13 1.61 0.0896 3.23 0.122 4.84 0.12 1.5 0.00206 1.5 0.00206 3.02 0.00417 1.09-0.0036 2.19-0.00719 3.31-0.0109 1.15 1.46e-4 2.3 2.92e-4 3.49 4.43e-4 3.81-6.98e-4 7.63-0.00849 11.4-0.0163 2.64-0.00186 5.28-0.00329 7.92-0.00429 6.25-0.00311 12.5-0.0113 18.7-0.0213 7.11-0.0112 14.2-0.0167 21.3-0.0217 14.6-0.0105 29.3-0.028 43.9-0.0503l1 3c0.99 0.33 1.98 0.66 3 1-0.83 0.302-1.66 0.604-2.52 0.915-21.4 7.69-21.4 7.69-42.5 16.1l-1.89 0.794c-8.06 3.4-16 7.05-23.8 11-5.59 2.84-11.2 5.52-16.9 8.19-6.78 3.2-13.5 6.52-20 10.1-3.75 2.04-7.53 3.97-11.4 5.84-14.1 6.89-27.1 15.3-40 24.1-2.54 1.71-5.08 3.42-7.62 5.12l-1.89 1.27c-3.92 2.61-7.89 5.11-11.9 7.54-11.5 7.05-22.4 14.6-32.6 23.5-2.58 2.23-5.2 4.37-7.88 6.48-4.71 3.73-9.26 7.63-13.8 11.6-4.53 3.9-9.13 7.7-13.8 11.5-3.06 2.52-6 5.15-8.92 7.83-1.56 1.21-1.56 1.21-3.56 1.21l-1 3-2.12 1.69c-3.79 3.05-6.74 6.62-9.88 10.3-1.21 1.4-2.41 2.79-3.62 4.19-0.793 0.918-0.793 0.918-1.6 1.86-2.64 2.91-5.45 5.65-8.25 8.42-1.55 1.53-3.1 3.07-4.65 4.6l-1.59 1.56c-2.17 2.16-4.21 4.27-6.03 6.74-0.623 0.806-0.623 0.806-1.26 1.63h-2l-0.656 1.63c-1.82 3.21-4.3 5.67-6.84 8.31-8.52 9.04-15.7 18.9-22.9 29-3.08 4.34-6.34 8.49-9.69 12.6-6.97 8.71-12.9 18-18.7 27.5-1.06 1.73-2.14 3.45-3.21 5.17-4.43 7.11-8.65 14.3-12.8 21.6-2.47 4.3-4.97 8.57-7.58 12.8-3.31 5.44-6.44 10.9-9.26 16.6-0.339 0.683-0.678 1.37-1.03 2.07-3.82 7.72-7.54 15.5-11.2 23.3-1.16 2.45-2.33 4.89-3.5 7.34-6.9 14.5-12.7 29.3-18.2 44.4-5.14 14.2-5.14 14.2-7.55 20.1-1.69 4.18-3.09 8.38-4.32 12.7l-0.632 2.18c-1.64 5.7-3.08 11.4-4.48 17.2-1.44 5.86-3.13 11.6-5.51 17.1-1.03 2.53-1.03 2.53-1.38 6-0.5 3.38-0.5 3.38-2.5 6.38-0.403 2.3-0.727 4.62-1 6.94-0.498 4.23-1.11 7.3-3 11.1-0.395 2.3-0.723 4.62-1 6.94-0.527 4.4-1.29 7.99-3 12.1-0.382 1.68-0.713 3.37-1 5.06-0.246 1.44-0.246 1.44-0.496 2.91l-0.504 3.03-0.535 3.03c-0.963 5.54-1.74 11-2.12 16.6-0.344 2.35-0.344 2.35-1.31 4.94-1.47 4.83-1.72 9.64-2.1 14.7-0.154 1.98-0.311 3.97-0.473 5.95-0.0658 0.873-0.132 1.75-0.199 2.65-0.265 2.15-0.265 2.15-1.27 4.15-0.17 1.6-0.286 3.2-0.373 4.81-0.0568 1-0.114 2.01-0.172 3.04-0.0573 1.09-0.115 2.19-0.174 3.31-0.0628 1.13-0.126 2.26-0.19 3.43-0.201 3.64-0.396 7.28-0.591 10.9-0.131 2.39-0.263 4.78-0.395 7.18-0.256 4.64-0.506 9.28-0.754 13.9-0.214 3.98-0.445 7.95-0.703 11.9-0.0518 0.825-0.104 1.65-0.157 2.5-0.0943 1.48-0.194 2.97-0.3 4.45-0.26 4.17 0.101 7.28 0.809 11.5h-130v-1600z" fill="#FBFCFE"/>
<path transform="translate(667,1201)" d="m0 0c0.66 0.33 1.32 0.66 2 1-3.8e-4 0.815-7.59e-4 1.63-0.00115 2.47-0.0224 48.3-0.0395 96.5-0.0499 145-0.00125 5.79-0.00255 11.6-0.00387 17.4-2.62e-4 1.15-5.25e-4 2.31-7.95e-4 3.49-0.00435 18.7-0.0122 37.4-0.0214 56.1-0.00934 19.2-0.0149 38.3-0.0169 57.5-0.00137 11.8-0.00572 23.7-0.0138 35.5-0.00527 8.11-0.00689 16.2-0.00558 24.3 6.42e-4 4.68-3.61e-4 9.36-0.0057 14-0.00485 4.28-0.00512 8.57-0.00169 12.8 4.24e-4 1.55-8.56e-4 3.1-0.00398 4.66-4e-3 2.11-0.00186 4.21 0.00184 6.32-3.8e-4 1.17-7.59e-4 2.34-0.00115 3.55 0.113 2.82 0.477 5.36 1.12 8.1 1.56-0.00138 1.56-0.00138 3.15-0.00279 25.5-0.0224 51.1-0.0387 76.6-0.049 12.3-0.00511 24.7-0.0121 37-0.0236 10.8-0.0101 21.6-0.0164 32.4-0.0186 5.69-0.00128 11.4-0.0042 17.1-0.0116 29.9-0.0377 59.8 0.317 89.8 1.11-0.33-0.99-0.66-1.98-1-3-0.0934-2.01-0.126-4.03-0.126-6.04-0.00391-1.91-0.00391-1.91-0.0079-3.85 0.00216-1.42 0.00442-2.84 0.00676-4.26-0.00115-1.5-0.00274-3-0.00473-4.51-0.00419-4.14-0.0021-8.28 9.86e-4 -12.4 0.00226-4.46-0.00123-8.92-0.00398-13.4-0.00446-8.75-0.00348-17.5-5.87e-4 -26.2 0.00226-7.12 0.00257-14.2 0.00148-21.4-2.3e-4 -1.52-2.3e-4 -1.52-4.64e-4 -3.07-3.2e-4 -2.06-6.44e-4 -4.11-9.73e-4 -6.17-0.00286-19.3 4.32e-4 -38.6 0.0058-57.9 0.00446-16.5 0.0037-33.1-9.19e-4 -49.6-0.00536-19.2-0.00745-38.4-0.00439-57.6 3.19e-4 -2.05 6.33e-4 -4.11 9.43e-4 -6.16 1.54e-4 -1.01 3.09e-4 -2.02 4.68e-4 -3.06 8.6e-4 -7.09-5.87e-4 -14.2-0.00295-21.3-0.00282-8.67-0.00201-17.3 0.00328-26 0.00261-4.42 0.00369-8.83 3.51e-4 -13.2-0.0206-30.4-0.0206-30.4 0.453-42.8 0.022-0.792 0.044-1.58 0.0666-2.4 0.251-5.07 0.251-5.07 2.16-7.54 0.481-0.331 0.962-0.662 1.46-1 4.13 1.57 8.06 3.45 12 5.44 0.689 0.346 1.38 0.693 2.09 1.05 15.9 8.04 31.6 16.4 46.9 25.5 0.629 0.373 1.26 0.745 1.91 1.13 6.73 4 13.1 8.27 19.4 12.9 2.62 1.89 5.3 3.6 8.05 5.3 5.95 3.73 11.4 7.98 16.9 12.3 2.84 2.23 5.7 4.43 8.56 6.63 0.542 0.419 1.08 0.839 1.64 1.27 2.88 2.22 5.8 4.36 8.79 6.42 0.887 0.66 1.77 1.32 2.69 2v2c0.59 0.264 1.18 0.527 1.79 0.799 2.3 1.25 3.78 2.55 5.59 4.42 0.915 0.931 0.915 0.931 1.85 1.88 0.625 0.646 1.25 1.29 1.89 1.96 1.25 1.28 2.5 2.57 3.76 3.85 0.551 0.569 1.1 1.14 1.67 1.72 1.42 1.47 1.42 1.47 3.45 2.37v2c0.531 0.206 1.06 0.412 1.61 0.625 3.4 1.95 5.9 4.6 8.64 7.38 0.831 0.82 0.831 0.82 1.68 1.66 4.07 4.09 4.07 4.09 4.07 6.34h2c1.41 1.4 1.41 1.4 3.06 3.38 2.74 3.22 5.52 6.38 8.38 9.5 15.9 17.6 29.2 38.1 40.7 58.8 1.54 2.74 3.15 5.4 4.8 8.07 3.09 5.13 5.56 10.4 7.96 15.9 2.99 6.72 6.06 13.3 9.44 19.9 3.56 6.96 6.25 14.1 8.69 21.5 0.312 0.913 0.624 1.83 0.945 2.77 0.643 1.89 1.27 3.79 1.89 5.69 0.912 2.79 1.85 5.57 2.79 8.34 4.54 13.6 7.74 27.2 10.4 41.2 0.16 0.835 0.32 1.67 0.484 2.53 2.35 12.3 3.67 24.3 3.65 36.9 9.57e-4 1.05 0.00191 2.1 0.0029 3.18 6.76e-4 2.2-0.00113 4.4-0.00534 6.6-0.00536 3.34-3.08e-5 6.68 0.00635 10-6.61e-4 2.15-0.00194 4.3-0.00391 6.45 0.00202 0.986 0.00405 1.97 0.00613 2.99-0.00315 0.945-0.0063 1.89-0.00955 2.86-0.00119 1.22-0.00119 1.22-0.00241 2.47-0.184 4.34-0.695 8.66-1.13 13h-802c-1.17-23.4-2.29-46.7 1-70 0.145-1.05 0.145-1.05 0.292-2.13 1.44-10.2 3.54-20.2 5.65-30.2 0.361-1.75 0.361-1.75 0.729-3.53 1.62-7.57 3.74-14.8 6.33-22.1 0.28-0.803 0.56-1.61 0.848-2.43 0.751-2.15 1.51-4.3 2.28-6.44 1.34-3.77 2.68-7.53 3.94-11.3 3.6-10.7 8.44-20.9 13.6-31 1.37-2.7 1.37-2.7 2.32-5.23 1.33-3.27 2.99-6.34 4.67-9.45 0.72-1.33 1.44-2.67 2.16-4 0.368-0.681 0.735-1.36 1.11-2.06 1.07-2 2.12-4.01 3.16-6.02 3.36-6.47 6.86-12.6 11.2-18.5 1.97-2.8 3.7-5.68 5.45-8.62 4.1-6.76 8.77-13 13.6-19.2 1.74-2.27 3.39-4.57 4.96-6.96 1.99-2.98 4.21-5.16 6.78-7.67 5.78-6.24 5.78-6.24 11.2-12.8 0.915-1.08 0.915-1.08 1.85-2.19h2c0.371-0.866 0.371-0.866 0.75-1.75 1.44-2.59 3.09-4.22 5.25-6.25 1.12-1.14 1.12-1.14 2.27-2.29 2.8-2.77 5.68-5.44 8.61-8.08 3.26-2.96 6.47-5.93 9.5-9.12 4.85-4.94 10.5-9 16-13.2 2.14-1.66 4.24-3.38 6.34-5.1 4.86-3.9 9.86-7.61 14.9-11.3 0.792-0.586 1.58-1.17 2.4-1.78 5.25-3.86 10.6-7.54 16-11.1 0.871-0.57 0.871-0.57 1.76-1.15 3.43-2.23 6.88-4.43 10.3-6.63 1.27-0.811 2.54-1.62 3.81-2.44 15.3-9.79 31.2-18.4 47.3-26.7 0.633-0.329 1.27-0.658 1.92-0.997 1.83-0.951 3.66-1.9 5.5-2.84 1.06-0.549 2.13-1.1 3.22-1.66 3.37-1.66 6.66-3.22 10.2-4.56z" fill="#FCFDFF"/>
<path transform="translate(396)" d="m0 0c76.4-0.0171 153-0.033 229-0.0423 1.13-1.38e-4 2.26-2.76e-4 3.43-4.18e-4 24.6-0.00299 49.1-0.00576 73.7-0.0083 12-0.00125 24.1-0.00254 36.1-0.00387 1.2-1.31e-4 2.4-2.62e-4 3.63-3.96e-4 38.9-0.00427 77.8-0.0118 117-0.021 39.9-0.00942 79.9-0.0156 120-0.0176 5.64-2.88e-4 11.3-6.14e-4 16.9-9.62e-4 1.66-1.01e-4 1.66-1.01e-4 3.36-2.04e-4 17.9-0.00118 35.8-0.00583 53.7-0.0118 18-0.00587 35.9-0.00814 53.9-0.00667 10.7 7.64e-4 21.4-0.00129 32.1-0.0073 7.13-0.00373 14.3-0.00388 21.4-0.00103 4.07 0.00152 8.14 0.0014 12.2-0.00305 3.69-0.00401 7.39-0.00352 11.1 7.43e-4 1.97 0.00106 3.94-0.00283 5.91-0.00687 1.15 0.00225 2.3 0.00449 3.49 0.00681 1-1.56e-4 2-3.12e-4 3.03-4.73e-4 2.23 0.125 2.23 0.125 3.23 1.12 0.104 1.67 0.139 3.35 0.145 5.03 0.00957 1.61 0.00957 1.61 0.0193 3.26 0.00167 1.77 0.00167 1.77 0.00337 3.57 0.00333 1.22 0.00666 2.43 0.0101 3.69 0.00508 2.59 0.00741 5.19 0.00725 7.78 0.00215 3.9 0.0202 7.8 0.0393 11.7 0.0425 18.4-0.405 35.9-5.22 53.7-1.19 4.69-1.79 9.47-2.44 14.3-0.541 2.94-1.42 5.31-2.56 8.05-0.488 1.85-0.945 3.7-1.38 5.56-2.18 8.93-5.12 17.5-8.7 26-1.01 2.52-1.01 2.52-1.71 5.5-1.54 5.53-4.16 10.6-6.59 15.8-0.529 1.13-1.06 2.27-1.6 3.44-1.11 2.38-2.22 4.75-3.34 7.12-1.1 2.34-2.2 4.67-3.29 7.01-10.6 22.7-10.6 22.7-17.2 32.7-1.46 2.27-2.87 4.57-4.27 6.87-11.1 18.2-23.5 35.1-37.9 50.9-0.42 0.464-0.84 0.928-1.27 1.41-1.45 1.6-2.9 3.19-4.35 4.78-0.456 0.5-0.912 1-1.38 1.51-2.92 3.18-5.93 6.26-8.99 9.3-0.943 0.963-1.88 1.93-2.82 2.89-0.954 0.973-1.91 1.95-2.86 2.92-0.485 0.502-0.971 1-1.47 1.52-1.24 1.26-2.54 2.47-3.84 3.67h-2c-0.222 0.556-0.443 1.11-0.672 1.68-5.31 9.26-17.2 16.6-25.6 23-1.67 1.28-3.32 2.56-4.98 3.85-3.23 2.51-6.49 5-9.75 7.47-0.546 0.417-1.09 0.834-1.66 1.26-16.7 12.7-34.5 24-52.7 34.3-2.9 1.63-5.78 3.28-8.67 4.93-9.74 5.55-19.5 11-29.6 15.9l-2.3 1.14c-4.15 1.95-7.32 3.02-12 2.49-1-1-1-1-1.12-3.64 3.8e-4 -1.19 7.59e-4 -2.38 0.00115-3.61-0.00115-0.663-0.00231-1.33-0.0035-2.01-0.00267-2.25 0.00186-4.5 0.00629-6.75-4.36e-4 -1.62-0.00131-3.24-0.00259-4.85-0.00225-4.47 0.00178-8.93 0.00678-13.4 0.0043-4.81 0.00286-9.62 0.0021-14.4-5.26e-4 -8.34 0.00262-16.7 0.00824-25 0.00811-12.1 0.0107-24.1 0.012-36.2 0.00219-19.6 0.00885-39.1 0.0183-58.7 0.00917-19 0.0163-38 0.0205-57 2.63e-4 -1.17 5.25e-4 -2.34 7.96e-4 -3.55 0.0013-5.87 0.00257-11.7 0.00381-17.6 0.0104-48.8 0.028-97.5 0.0503-146-32.5-0.0228-64.9-0.0405-97.4-0.0511-3.83-0.00125-7.66-0.00255-11.5-0.00387-1.14-3.93e-4 -1.14-3.93e-4 -2.31-7.95e-4 -12.4-0.00436-24.7-0.0122-37.1-0.0214-12.7-0.00934-25.3-0.0149-38-0.0169-7.83-0.00138-15.7-0.00573-23.5-0.0138-5.99-0.00589-12-0.00654-18-0.00519-2.47-2.77e-4 -4.93-0.00228-7.4-0.0061-3.35-0.00493-6.7-0.0038-10-0.00105-0.989-0.00291-1.98-0.00583-3-0.00883-0.89 0.00199-1.78 0.00398-2.7 0.00603-1.16-5.7e-4 -1.16-5.7e-4 -2.35-0.00115-1.79-0.0671-1.79-0.0671-2.76 1.12-0.103 2.08-0.134 4.16-0.139 6.25-0.00426 0.994-0.00426 0.994-0.00861 2.01-0.0084 2.25-0.00962 4.5-0.0109 6.75-0.00456 1.62-0.00956 3.24-0.015 4.85-0.0136 4.47-0.021 8.93-0.0274 13.4-0.00798 4.81-0.0217 9.62-0.0347 14.4-0.0218 8.34-0.0399 16.7-0.0556 25-0.0227 12.1-0.0508 24.1-0.0803 36.2-0.0477 19.6-0.091 39.1-0.131 58.7-0.0393 19-0.0808 38-0.125 57-0.00409 1.76-0.00409 1.76-0.00826 3.55-0.0137 5.87-0.0274 11.7-0.0411 17.6-0.114 48.8-0.221 97.5-0.323 146-4.02-1.12-7.74-2.18-11.4-4.17-1.16-0.621-1.16-0.621-2.34-1.25-0.8-0.437-1.6-0.873-2.43-1.32-1.69-0.907-3.38-1.81-5.07-2.72-0.814-0.437-1.63-0.874-2.47-1.32-2.94-1.55-5.91-3.01-8.91-4.46-3.33-1.65-6.4-3.37-9.44-5.5-4.56-3.18-9.44-5.65-14.4-8.19-6-3.1-11.7-6.23-17.2-10.3-5.38-3.96-11-7.54-16.7-11.1-0.873-0.558-1.75-1.12-2.65-1.69-1.81-1.15-3.62-2.3-5.43-3.45-0.862-0.553-1.72-1.11-2.61-1.68-0.781-0.496-1.56-0.992-2.37-1.5-0.559-0.437-1.12-0.875-1.69-1.33v-2c-0.576-0.268-1.15-0.536-1.75-0.812-2.31-1.22-4.25-2.6-6.32-4.19-2.28-1.75-4.54-3.4-6.94-5v-2c-1.65-0.66-3.3-1.32-5-2v-2c-0.575-0.267-1.15-0.534-1.74-0.809-9.34-4.93-18.1-13.5-25.3-21.2v-2h-2c-1.35-1.65-2.69-3.32-4-5-0.66-0.33-1.32-0.66-2-1v-2c-0.859-0.371-0.859-0.371-1.73-0.75-2.62-1.44-4.41-3.13-6.52-5.25-0.706-0.701-1.41-1.4-2.14-2.12-1.61-1.88-1.61-1.88-1.61-3.88h-2c-1.35-1.49-2.63-3.04-3.88-4.62-3.12-3.91-6.29-7.74-9.59-11.5-11.8-13.5-20.7-28.6-29.8-44-1.9-3.19-3.81-6.37-5.73-9.55-1.68-2.78-3.34-5.57-5-8.36-0.499-0.83-0.998-1.66-1.51-2.52-2.83-4.86-4.77-9.75-6.5-15.1-1.03-2.46-2.09-3.57-3.99-5.38-0.467-1.64-0.928-3.27-1.34-4.92-0.774-2.45-1.85-4.61-3.03-6.89-3.16-6.13-5.92-12.4-7.75-19.1-0.734-3-0.734-3-1.88-5.12-2.59-5.18-3.58-11.3-4.94-16.9-1.74-9.78-1.74-9.78-6.06-18.1-0.286-3.3-0.449-6.59-0.621-9.9-0.163-3.26-0.163-3.26-2.38-6.1-0.379-2.22-0.379-2.22-0.562-4.78-0.112-1.39-0.112-1.39-0.227-2.8-0.141-1.95-0.281-3.89-0.422-5.84-0.112-1.39-0.112-1.39-0.227-2.8-0.0606-0.845-0.121-1.69-0.184-2.56-0.272-2.5-0.272-2.5-2.38-5.22-0.241-2.75-0.241-2.75-0.227-6.12 1.51e-4 -1.26 3.02e-4 -2.52 4.58e-4 -3.82 0.0102-1.38 0.0206-2.75 0.0313-4.13 0.00373-1.41 0.00658-2.82 0.00858-4.22 0.00763-3.7 0.0273-7.41 0.0494-11.1 0.0205-3.78 0.0296-7.56 0.0397-11.3 0.0214-7.42 0.0556-14.8 0.0977-22.2z" fill="#FCFDFF"/>
</svg>
